<?xml version="1.0" encoding="utf-8"?>
<!-- Generator: Adobe Illustrator 21.0.0, SVG Export Plug-In . SVG Version: 6.00 Build 0)  -->
<svg version="1.1" id="Layer_1" xmlns="http://www.w3.org/2000/svg" xmlns:xlink="http://www.w3.org/1999/xlink" x="0px" y="0px"
	 viewBox="0 0 205.5 85" style="enable-background:new 0 0 205.5 85;" xml:space="preserve">
<style type="text/css">
	.st0{fill:#2E368F;}
	.st1{fill:#EC2227;}
</style>
<g>
	<path class="st0" d="M23.9,51l-0.6,3.2c-0.1,0.7-0.3,1.7-0.5,2.9c-1.1,6.1-2,10.2-2.7,12.1c-0.1,0.4-0.4,0.9-0.8,1.7
		c-1.3,1.9-2.9,2.9-4.8,2.9c-1.5,0-2.7-0.5-3.6-1.6C10,71.1,9.5,69.7,9.5,68c0-1.2,0.3-3.3,0.8-6.5c0.5-3.1,1.1-6.1,1.8-8.9
		c-1.6-0.5-2.4-1.6-2.4-3.3c0-1.2,0.3-2.5,0.7-4.1c0.5-1.5,1.1-2.9,1.9-4.1c0.8-1.2,1.4-2,2.2-2.3c0.3-1.4,0.9-4.3,1.8-8.8
		c2-9.7,3.5-16.3,4.7-19.6c0.5-1.1,0.9-2,1.3-2.6c1.1-1.6,2.4-2.4,4-2.4c1,0,1.9,0.3,2.7,0.9c0.8,0.6,1.4,1.3,1.8,2.3
		c0.4,1,0.6,2.2,0.6,3.5c0,1.8-1.4,9.7-4.4,23.4c0,0.2-0.1,0.6-0.2,1c-0.1,0.4-0.2,0.8-0.3,1.2l-0.1,0.4l11.2-0.4l0.5-3.1
		c0.6-3.3,1.3-6.6,2-9.8c0.7-3.3,1.3-5.8,1.8-7.8c0.5-2,1-3.7,1.5-5.2c0.5-1.5,1-2.6,1.4-3.4c1.1-1.8,2.5-2.8,4.4-2.8
		c3.2,0,4.7,2.2,4.7,6.6c0,4.2-1.4,11.7-4.2,22.6c-0.4,1.6-0.6,2.6-0.7,3c0.1,0,0.2-0.1,0.2-0.1c0.1,0,0.1,0,0.2,0
		c1.1,0,2,0.3,2.6,0.9c0.7,0.6,0.9,1.5,0.9,2.5c0,0.7-0.3,1.8-0.8,3.1c-0.5,1.3-1.1,2.5-1.8,3.5c-0.6,1-1.1,1.8-1.6,2.2
		c-0.4,0.4-1.3,0.7-2.5,1.1L46.4,52c-0.1,0.5-0.4,1.4-0.6,2.7c-0.4,1.9-0.9,3.8-1.3,5.7c-0.4,1.9-0.8,3.4-1.1,4.4
		c-0.3,1.1-0.6,2-0.9,2.7c-0.4,0.8-0.7,1.4-1.2,2c-1,1.2-2.1,2.2-3.3,3c-1.3,0.8-2.3,1.1-3.2,1.1c-0.9,0-1.7-0.4-2.3-1.1
		c-0.5-0.7-0.8-1.8-0.8-3.2c0-2.3,0.8-7.2,2.3-14.6c0.4-1.6,0.6-2.8,0.8-3.6L23.9,51z"/>
</g>
<g>
	<path class="st0" d="M63,31.5l-0.8,3.9c-1.1,5-2.1,10-3,14.9c-0.4,2.4-1.1,6.6-2,12.6c1.4-0.2,3.3-0.8,5.6-1.7
		c1.5-0.6,2.4-0.9,2.7-0.9c0.6,0,0.9,0.4,0.9,1.4c0,1.1-0.3,2.6-0.9,4.5c-0.6,2-1.4,3.6-2.2,5c-0.5,1-1.4,1.7-2.5,2.1
		c-1.1,0.4-2.8,0.6-5.1,0.6c-2.2,0-3.8-0.1-5-0.4c0,0-0.3-0.2-0.8-0.5c-0.9-0.8-1.4-2.4-1.4-4.9c0-1.8,0.3-5.1,0.8-9.8
		c0.5-4.7,1.3-10.6,2.3-17.7c2.3-15.7,4-25.4,5.1-29.1c0.4-1.3,0.8-2.2,1.4-2.9c0.5-0.7,1.3-1.3,2.3-1.6c0.9-0.4,2-0.6,3.2-0.6
		c1.1,0,1.9,0.3,2.4,0.9c0.4,0.6,0.7,1.6,0.7,2.9c0,1.3-0.3,3.8-0.9,7.4C65,21.3,64.1,25.9,63,31.5z"/>
</g>
<g>
	<path class="st1" d="M78.2,63.2v5.1l-0.6,1v-6.9h-1.7L75.8,63c0.2,0.1,0.4,0.2,0.5,0.4c0.1,0.2,0.2,0.4,0.2,0.7v3.4
		c0,0.4-0.2,0.7-0.5,1c-0.4,0.4-0.6,0.5-0.7,0.5s-0.3-0.1-0.5-0.3c-0.3-0.2-0.4-0.4-0.5-0.6s-0.2-0.5-0.3-0.8c0.1,0,0.1-0.1,0.1-0.2
		c0-0.1,0-0.2,0-0.3v-2.2c0-0.2-0.1-0.4-0.4-0.4c-0.1,0-0.1-0.1-0.1-0.2s0-0.3,0.1-0.5l0.5-2.1H75c0,0.4,0,0.8-0.1,1.1
		c-0.1,0.3-0.1,0.5-0.3,0.6c0-0.2,0-0.4,0-0.5c0-0.1-0.1-0.2-0.2-0.2h-0.4l-0.2,0.9c0.3,0.1,0.4,0.2,0.6,0.4
		c0.1,0.2,0.2,0.4,0.2,0.7v2.6c0,0.1,0,0.3-0.1,0.3c0,0.1,0.1,0.3,0.4,0.6c0.3,0.3,0.5,0.4,0.6,0.4c0.1,0,0.1,0,0.2-0.1
		c0.1,0,0.1-0.3,0.1-0.6v-3.1c0-0.2-0.1-0.4-0.4-0.4c-0.1,0-0.1-0.1-0.1-0.2c0-0.1,0-0.3,0.1-0.5l0.4-1.9h2.4v1c0.3-0.7,0.6-1,0.9-1
		h0.9v6.9l-0.6,1v-6.9h-0.4C78.7,62.4,78.4,62.6,78.2,63.2z"/>
	<path class="st1" d="M83.2,63c0.3,0.4,0.4,0.7,0.4,0.9v4.3l-0.2,0.4c-0.2,0.3-0.3,0.4-0.3,0.4c-0.1,0-0.1-0.1-0.3-0.4l-0.6-1.3
		l-0.7,1.4c-0.1,0.1-0.1,0.2-0.2,0.2s-0.1-0.1-0.1-0.2v-2.4l-0.4-0.5c-0.1-0.1-0.1-0.3-0.1-0.4c0-0.4,0-0.6,0.1-0.8l0.3-0.5
		c0.1-0.2,0.2-0.3,0.3-0.3c0.1,0,0.2,0.1,0.4,0.3v3.2l0.6-1.2l0.6,1.2v-3.5c0-0.3-0.1-0.5-0.2-0.8c0,0-0.1,0-0.1,0h-0.6
		c-0.3,0-0.5,0.1-0.6,0.3c-0.2-0.1-0.3-0.3-0.3-0.5v-2.4c0-0.1,0-0.2-0.1-0.2c0,0-0.1,0.1-0.2,0.2c0.2-0.7,0.4-1.1,0.5-1.1
		c0.2,0,0.4,0.4,0.4,1.2v1.9h0.6c0-0.1,0-0.2,0-0.3c0-0.3,0.1-0.4,0.2-0.6s0.3-0.3,0.4-0.3s0.4,0.1,0.4,0.3c0.1,0.2,0.2,0.4,0.2,0.6
		c0,0.2-0.1,0.4-0.3,0.6C83.2,62.9,83.2,62.9,83.2,63z M81.2,65.8v-0.4L81,65.6L81.2,65.8z M82.7,62.4c0.1,0,0.2,0,0.2-0.1
		c0,0,0-0.1,0-0.2c-0.1-0.3-0.2-0.4-0.3-0.1C82.6,62.1,82.7,62.2,82.7,62.4z"/>
	<path class="st1" d="M87.2,66.9c0,0.1,0,0.3-0.1,0.3c0,0.1,0.1,0.3,0.4,0.6c0.3,0.3,0.5,0.4,0.6,0.4c0.1,0,0.1,0,0.2-0.1
		c0.1,0,0.1-0.3,0.1-0.6v-2.9c0-0.2-0.1-0.4-0.4-0.4c-0.1,0-0.1-0.1-0.1-0.2c0-0.1,0-0.3,0.1-0.5l0.5-2.1h0.9c0,0.4,0,0.8-0.1,1.1
		c-0.1,0.3-0.1,0.5-0.3,0.6c0-0.2,0-0.4,0-0.5c0-0.1-0.1-0.2-0.2-0.2h-0.4l-0.2,0.9c0.3,0.1,0.4,0.2,0.6,0.4
		c0.1,0.2,0.2,0.4,0.2,0.7v3.2c0,0.4-0.2,0.7-0.5,1s-0.6,0.5-0.7,0.5c-0.1,0-0.3-0.1-0.5-0.3c-0.3-0.2-0.4-0.4-0.5-0.6
		c-0.1-0.2-0.2-0.5-0.3-0.8c0.1,0,0.1-0.1,0.1-0.2c0-0.1,0-0.2,0-0.3v-4.4h-1.7l-0.2,0.7c0.2,0.1,0.4,0.2,0.5,0.4
		c0.1,0.2,0.2,0.4,0.2,0.7v1.6h0.2c0.3,0,0.4,0.3,0.4,0.8s-0.1,1-0.4,1.4L85.1,69c-0.1,0.2-0.2,0.2-0.2,0.2c0,0-0.1-0.1-0.1-0.2
		v-4.4c0-0.2-0.1-0.4-0.4-0.4c-0.1,0-0.1-0.1-0.1-0.2c0-0.1,0-0.3,0.1-0.5l0.4-1.9h2.4V67L87.2,66.9L87.2,66.9z M85.4,67.5
		c0.2-0.3,0.3-0.5,0.3-0.8c0-0.1,0-0.2-0.1-0.2h-0.2L85.4,67.5L85.4,67.5z"/>
	<path class="st1" d="M90.4,63.9c-0.1-0.2-0.1-0.3-0.2-0.4c-0.1-0.1-0.2-0.1-0.4-0.1l0.6-2h0.9c0.1,0,0.1,0.2,0.1,0.5
		c0.1-0.4,0.2-0.5,0.3-0.5h0.9c0,0.4,0,0.8-0.1,1.1c-0.1,0.3-0.2,0.5-0.3,0.7c0-0.3,0.1-0.5,0.1-0.6c0-0.1,0-0.2-0.1-0.2h-0.5
		c-0.1,0-0.3,0.2-0.4,0.6c0.1-0.4,0-0.6-0.1-0.6h-0.8l-0.1,0.3c0.1,0.1,0.3,0.2,0.4,0.4c0.1,0.2,0.1,0.4,0,0.5
		C90.6,63.7,90.5,63.9,90.4,63.9z M90.1,69.3v-4.3c0-0.4,0.2-0.7,0.5-1c0.4-0.4,0.6-0.5,0.7-0.5c0.1,0,0.3,0.1,0.5,0.3
		c0.5,0.5,0.7,0.9,0.7,1.2v3.3l-0.6,1v-4.1c0-0.1-0.1-0.3-0.4-0.6c-0.3-0.3-0.4-0.4-0.5-0.4s-0.1,0-0.2,0.1s-0.1,0.3-0.1,0.6v3.3
		L90.1,69.3z"/>
	<path class="st1" d="M91,60.8V58l0.6-1v2.8L91,60.8z"/>
	<path class="st1" d="M93.6,64.3l-0.2-0.2c0-0.4,0-0.8,0.1-1.1l0.4-1.5h2.2c0,0.4,0,0.8-0.1,1.1l-0.2,0.7c-0.1,0.5-0.3,0.7-0.5,0.7
		s-0.6-0.2-1-0.6l0.5-0.7c0.2,0.2,0.4,0.3,0.5,0.3s0.3-0.1,0.3-0.3c0-0.2,0-0.3-0.1-0.3H94l-0.2,0.8l0.3,0.4
		c0.2,0.3,0.4,0.5,0.7,0.6l0.8,0.4c0.2,0.1,0.4,0,0.5-0.4c0,0.5-0.1,0.9-0.2,1.1c-0.2,0.2-0.3,0.3-0.4,0.2l-0.3,0l-0.6-0.3
		C94.2,65.1,93.9,64.8,93.6,64.3z M94.2,65.6v1.7c0,0.1,0.1,0.3,0.4,0.6c0.3,0.3,0.4,0.4,0.5,0.4s0.1,0,0.2-0.1
		c0.1,0,0.1-0.3,0.1-0.6V66c0.1,0,0.3,0,0.4-0.1c0.1-0.1,0.2-0.2,0.2-0.4v2.1c0,0.4-0.2,0.7-0.5,1c-0.4,0.4-0.6,0.5-0.7,0.5
		s-0.3-0.1-0.5-0.3c-0.5-0.5-0.7-0.9-0.7-1.2v-1.4l0.4-0.6c0.1-0.1,0.1-0.2,0.2-0.2C94.2,65.3,94.2,65.4,94.2,65.6z"/>
	<path class="st1" d="M94.8,72.8c-0.1-0.2-0.2-0.4-0.2-0.5v-1.1c-0.1,0.1-0.2,0.1-0.3,0c-0.1-0.1-0.2-0.3-0.2-0.4
		c0-0.2,0.1-0.4,0.3-0.8c0.2-0.4,0.3-0.5,0.4-0.5c0.1,0,0.2,0.1,0.4,0.3v2.6c0.2-0.1,0.3-0.2,0.3-0.3c0.1-0.1,0.1-0.3,0.1-0.6
		c0-0.2,0-0.4-0.1-0.5c-0.1-0.2-0.1-0.4-0.1-0.7c0-0.2,0.1-0.4,0.2-0.5s0.3-0.3,0.4-0.4c-0.1,0.3-0.2,0.5-0.2,0.7
		c0,0.2,0.1,0.4,0.2,0.6s0.2,0.5,0.2,0.9c0,0.2-0.2,0.5-0.5,0.9c-0.3,0.4-0.5,0.6-0.7,0.6C94.9,73.1,94.9,73,94.8,72.8z M94.6,70.8
		v-0.2c-0.1,0.1-0.1,0.2-0.1,0.3C94.5,70.9,94.5,70.9,94.6,70.8z"/>
	<path class="st1" d="M97.8,68.2l-0.3,0.6c-0.1,0.1-0.1,0.2-0.2,0.2c-0.1,0-0.1-0.1-0.1-0.2c0-0.3-0.1-0.6-0.3-0.9
		c-0.2-0.3-0.3-0.6-0.3-1c0-0.2,0.1-0.3,0.2-0.4l0.4-0.5v-1.4c0-0.2-0.1-0.4-0.4-0.4c-0.1,0-0.1-0.1-0.1-0.2c0-0.2,0-0.3,0.1-0.5
		l0.5-2.1h0.9c0,0.4,0,0.8-0.1,1.1C98,62.6,98,62.8,97.8,63c0-0.2,0-0.4,0-0.5c0-0.1-0.1-0.2-0.2-0.2h-0.4l-0.2,0.9
		c0.3,0.1,0.4,0.2,0.6,0.4c0.1,0.2,0.2,0.4,0.2,0.7L97.8,68.2L97.8,68.2L97.8,68.2z M97.3,66.6l-0.2,0.2l0.2,0.3V66.6z"/>
	<path class="st1" d="M99.4,64.1c-0.1-0.2-0.1-0.3-0.2-0.4c-0.1-0.1-0.3-0.2-0.5-0.2l0.6-2h2c0,0.4,0,0.8-0.1,1.1
		c-0.1,0.3-0.2,0.5-0.3,0.7c0-0.3,0.1-0.5,0.1-0.6c0-0.1,0-0.2-0.1-0.2h-1.6l-0.1,0.3c0.2,0.1,0.3,0.3,0.4,0.5
		c0.1,0.1,0.1,0.3,0.2,0.4c0.2-0.1,0.3-0.2,0.3-0.2c0.1,0,0.3,0.1,0.5,0.3c0.5,0.5,0.7,0.9,0.7,1.2v2c0,0.1,0,0.3-0.1,0.3
		c0,0.1,0.1,0.3,0.4,0.6c0.3,0.3,0.5,0.4,0.6,0.4c0.1,0,0.1,0,0.2-0.1c0.1,0,0.1-0.3,0.1-0.6v-2.9c0-0.2-0.1-0.4-0.4-0.4
		c-0.1,0-0.1-0.1-0.1-0.2c0-0.1,0-0.3,0.1-0.5l0.5-2.1h0.9c0,0.4,0,0.8-0.1,1.1c-0.1,0.3-0.1,0.5-0.3,0.6c0-0.2,0-0.4,0-0.5
		c0-0.1-0.1-0.2-0.2-0.2h-0.4l-0.2,0.9c0.3,0.1,0.4,0.2,0.6,0.4c0.1,0.2,0.2,0.4,0.2,0.7v3.2c0,0.4-0.2,0.7-0.5,1s-0.6,0.5-0.7,0.5
		c-0.1,0-0.3-0.1-0.5-0.3c-0.3-0.2-0.4-0.4-0.5-0.6c-0.1-0.2-0.2-0.5-0.3-0.8c0.1,0,0.1-0.1,0.1-0.2c0-0.1,0-0.2,0-0.3v-1.6
		c0-0.1-0.1-0.3-0.4-0.6s-0.4-0.4-0.5-0.4s-0.1,0-0.2,0.1c-0.1,0-0.1,0.3-0.1,0.6v1.3h0.2c0.2,0,0.3,0,0.4,0.1
		c0.1,0.1,0.1,0.2,0.1,0.4c0,0.4-0.1,0.7-0.4,1.2l-0.5,0.9c-0.1,0.2-0.2,0.2-0.2,0.2s-0.1-0.1-0.1-0.2V65
		C99,64.6,99.1,64.3,99.4,64.1z M99.6,67.5c0.2-0.3,0.3-0.5,0.3-0.6s0-0.1-0.1-0.1h-0.2L99.6,67.5L99.6,67.5z"/>
	<path class="st1" d="M102.6,60.8c-0.1,0-0.2,0-0.3,0c-0.1,0-0.2,0-0.4-0.1c-0.4-0.2-0.6-0.4-0.6-0.7c0-0.1,0.1-0.4,0.3-0.9
		c0.1-0.3,0.2-0.4,0.4-0.5c0.1-0.1,0.3-0.1,0.4,0c0.2,0.1,0.3,0.2,0.3,0.3c0,0.1,0,0.3-0.1,0.5c-0.1,0.1-0.2,0.2-0.3,0.3
		c-0.1,0-0.2,0-0.4,0c0-0.1,0-0.2-0.1-0.3c-0.1,0-0.2,0-0.2,0.1c0,0.1,0.1,0.3,0.5,0.4c0.2,0.1,0.4,0.1,0.5,0.1
		c0.1,0,0.3-0.1,0.4-0.2c0.1-0.1,0.2-0.3,0.2-0.4c0-0.2,0-0.4-0.1-0.6c-0.1-0.4-0.2-0.8-0.2-1.3c0-0.2,0-0.4,0.1-0.6
		c0.1-0.2,0.2-0.4,0.4-0.4c-0.1,0.3-0.2,0.5-0.2,0.8c0,0.1,0.1,0.4,0.2,0.7c0.1,0.3,0.2,0.6,0.2,1c0,0.2,0,0.5-0.1,0.7
		s-0.2,0.5-0.4,0.7C103,60.6,102.8,60.8,102.6,60.8z"/>
	<path class="st1" d="M104.4,62.4l-0.2,0.7c0.2,0.1,0.4,0.2,0.5,0.4c0.1,0.2,0.2,0.4,0.2,0.7v1.6h0.2c0.3,0,0.4,0.3,0.4,0.8
		s-0.1,1-0.4,1.4l-0.5,0.9c-0.1,0.2-0.2,0.2-0.2,0.2c0,0-0.1-0.1-0.1-0.2v-4.4c0-0.2-0.1-0.4-0.4-0.4c-0.1,0-0.1-0.1-0.1-0.2
		c0-0.1,0-0.3,0.1-0.5l0.4-1.9h0.9c0.1,0,0.2,0.2,0.2,0.7c0.2-0.4,0.3-0.7,0.5-0.7h0.8v6.9l-0.6,1v-6.9H106c-0.2,0-0.4,0.3-0.6,0.8
		l0-0.2c0-0.4,0-0.6-0.1-0.6H104.4z M105,67.5c0.2-0.3,0.3-0.5,0.3-0.8c0-0.1,0-0.2-0.1-0.2H105L105,67.5L105,67.5z"/>
	<path class="st1" d="M106,69.7c0.1,0.1,0.2,0.3,0.2,0.5c0,0.2-0.2,0.5-0.6,0.8c-0.4,0.3-0.6,0.6-0.6,0.9c0,0.2,0.1,0.3,0.2,0.4
		c0.1,0.1,0.3,0,0.6-0.4c0.3-0.3,0.4-0.6,0.4-0.9l0.6-1v2.3l-0.6,1v-1.4l-0.4,0.6c-0.2,0.4-0.4,0.6-0.6,0.6s-0.4-0.1-0.5-0.4
		c-0.2-0.2-0.3-0.5-0.3-0.9c0-0.6,0.2-0.9,0.6-1.1c0.4-0.1,0.6-0.5,0.6-1.3C105.8,69.5,105.9,69.6,106,69.7z"/>
	<path class="st1" d="M108,59.4c-0.1,0.4,0,0.5,0.2,0.5c0.4,0,0.5-0.2,0.6-0.4c0.1-0.3,0-0.4-0.3-0.4c-0.6,0-0.9,0.1-1.1,0.4
		c0.3-1.1,0.3-1.7,0.3-1.9c-0.1-0.1-0.3-0.2-0.6-0.2c0.2-0.7,0.3-1,0.5-1c0.2,0,0.3,0.1,0.5,0.3c0.2,0.2,0.1,0.8-0.1,1.8
		c0.2-0.3,0.4-0.4,0.6-0.4c0.3,0,0.6,0.1,0.7,0.4c0.1,0.1,0.1,0.3,0.1,0.4c0,0,0,0,0,0.1c0,0.2,0,0.4-0.1,0.7
		c-0.1,0.4-0.3,0.8-0.4,1c-0.2,0.2-0.3,0.4-0.5,0.4c-0.5,0-0.8-0.2-0.8-0.6C107.4,59.9,107.6,59.6,108,59.4z M107.9,64.6
		c0-0.2-0.1-0.4-0.4-0.4c-0.1,0-0.1-0.1-0.1-0.2c0-0.1,0-0.3,0.1-0.5l0.5-2.1h0.9c0,0.4,0,0.8-0.1,1.1c-0.1,0.3-0.1,0.5-0.3,0.6
		c0-0.2,0-0.4,0-0.5c0-0.1-0.1-0.2-0.2-0.2h-0.4l-0.2,0.9c0.3,0.1,0.4,0.2,0.6,0.4c0.1,0.2,0.2,0.4,0.2,0.7v1.4h0.1
		c0.2,0,0.3,0.1,0.4,0.2c0.1,0.1,0.1,0.3,0.1,0.5c0,0.4-0.1,0.9-0.4,1.4l-0.5,1c-0.1,0.2-0.2,0.3-0.2,0.3c0,0-0.1-0.1-0.1-0.2V64.6
		L107.9,64.6L107.9,64.6z M108.5,67.3c0.2-0.3,0.2-0.5,0.2-0.7c0-0.1,0-0.2-0.1-0.2h-0.1L108.5,67.3L108.5,67.3z"/>
	<path class="st1" d="M110.2,63.7c-0.5-0.2-0.7-0.4-0.7-0.7c0-0.1,0.1-0.4,0.3-0.9c0.1-0.3,0.3-0.5,0.4-0.6c0.2-0.1,0.3-0.1,0.5,0
		c0.2,0.1,0.3,0.2,0.4,0.3c0,0.1,0,0.3-0.1,0.5c-0.1,0.3-0.4,0.4-0.7,0.3c0-0.1,0-0.2-0.1-0.3c-0.1,0-0.2,0-0.2,0.1
		c-0.1,0.1,0.1,0.3,0.5,0.4c0.4,0.2,0.7,0.1,0.9-0.1c0.2-0.3,0.2-0.6,0.1-1.1c-0.1-0.4-0.2-0.9-0.2-1.3c0-0.2,0.1-0.4,0.2-0.6
		c0.1-0.2,0.3-0.4,0.5-0.5c-0.1,0.3-0.2,0.6-0.2,0.8c0,0.1,0.1,0.4,0.2,0.7c0.1,0.4,0.2,0.7,0.2,1.1c0,0.5-0.2,1-0.6,1.6
		C111.1,63.8,110.7,64,110.2,63.7z M110.3,64.4v3l0.6-1.2l0.6,1.2v-3l0.6-1v4.9l-0.2,0.4c-0.2,0.3-0.3,0.4-0.3,0.4
		c-0.1,0-0.1-0.1-0.3-0.4l-0.6-1.3l-0.7,1.4c-0.1,0.1-0.1,0.2-0.2,0.2c-0.1,0-0.1-0.1-0.1-0.2v-4.4H110.3L110.3,64.4z"/>
	<path class="st1" d="M113.2,64.3l-0.2-0.2c0-0.4,0-0.8,0.1-1.1l0.4-1.5h2.2c0,0.4,0,0.8-0.1,1.1l-0.2,0.7c-0.1,0.5-0.3,0.7-0.5,0.7
		c-0.3,0-0.6-0.2-1-0.6l0.5-0.7c0.2,0.2,0.4,0.3,0.5,0.3s0.3-0.1,0.3-0.3c0-0.2,0-0.3-0.1-0.3h-1.6l-0.2,0.8l0.3,0.4
		c0.2,0.3,0.4,0.5,0.7,0.6l0.8,0.4c0.2,0.1,0.4,0,0.5-0.4c0,0.5-0.1,0.9-0.2,1.1c-0.2,0.2-0.3,0.3-0.4,0.2l-0.2-0.1l-0.6-0.3
		C113.9,65.1,113.5,64.8,113.2,64.3z M113.9,65.6v1.7c0,0.1,0.1,0.3,0.4,0.6c0.3,0.3,0.4,0.4,0.5,0.4s0.1,0,0.2-0.1
		c0.1,0,0.1-0.3,0.1-0.6V66c0.1,0,0.3,0,0.4-0.1c0.1-0.1,0.2-0.2,0.2-0.4v2.1c0,0.4-0.2,0.7-0.5,1c-0.4,0.4-0.6,0.5-0.7,0.5
		c-0.1,0-0.3-0.1-0.5-0.3c-0.5-0.5-0.7-0.9-0.7-1.2v-1.4l0.4-0.6c0.1-0.1,0.1-0.2,0.2-0.2C113.8,65.3,113.9,65.4,113.9,65.6z"/>
	<path class="st1" d="M114.5,57.8c0.1,0,0.3,0.1,0.4,0.2c0.1,0.1,0.2,0.3,0.3,0.6c0.1,0.3,0.1,0.5,0.1,0.8c0,0.3,0,0.5-0.1,0.8
		c0,0.3-0.2,0.4-0.3,0.6c-0.1,0.1-0.3,0.2-0.4,0.2c-0.1,0-0.3-0.1-0.4-0.2c-0.1-0.1-0.2-0.3-0.3-0.6c-0.1-0.3-0.1-0.5-0.1-0.8
		c0-0.3,0-0.5,0.1-0.8c0.1-0.3,0.2-0.4,0.3-0.6C114.2,57.9,114.3,57.8,114.5,57.8z M114.3,58.6c-0.1-0.1-0.2,0-0.3,0.1
		c-0.1,0.1-0.1,0.3,0,0.4c0,0.2,0.1,0.4,0.3,0.6c0.2,0.2,0.3,0.4,0.4,0.4c0.1,0.1,0.2,0,0.3-0.1c0.1-0.1,0.1-0.3,0-0.4
		c0-0.2-0.1-0.4-0.3-0.6C114.5,58.8,114.4,58.6,114.3,58.6z"/>
	<path class="st1" d="M116.8,64.6c0-0.2-0.1-0.4-0.4-0.4c-0.1,0-0.1-0.1-0.1-0.2c0-0.1,0-0.3,0.1-0.5l0.5-2.1h0.9
		c0,0.4,0,0.8-0.1,1.1c-0.1,0.3-0.1,0.5-0.3,0.6c0-0.2,0-0.4,0-0.5c0-0.1-0.1-0.2-0.2-0.2h-0.4l-0.2,0.9c0.3,0.1,0.4,0.2,0.6,0.4
		c0.1,0.2,0.2,0.4,0.2,0.7v1.4h0.1c0.2,0,0.3,0.1,0.4,0.2c0.1,0.1,0.1,0.3,0.1,0.5c0,0.4-0.1,0.9-0.4,1.4l-0.5,1
		c-0.1,0.2-0.2,0.3-0.2,0.3c-0.1,0-0.1-0.1-0.1-0.2V64.6L116.8,64.6L116.8,64.6z M117.4,67.3c0.2-0.3,0.2-0.5,0.2-0.7
		c0-0.1,0-0.2-0.1-0.2h-0.1L117.4,67.3L117.4,67.3z"/>
	<path class="st1" d="M118.5,64.3l-0.2-0.2c0-0.4,0-0.8,0.1-1.1l0.4-1.5h2.2c0,0.4,0,0.8-0.1,1.1l-0.2,0.7c-0.1,0.5-0.3,0.7-0.5,0.7
		s-0.6-0.2-1-0.6l0.5-0.7c0.2,0.2,0.4,0.3,0.5,0.3s0.3-0.1,0.3-0.3c0-0.2,0-0.3-0.1-0.3h-1.6l-0.2,0.8l0.3,0.4
		c0.2,0.3,0.4,0.5,0.7,0.6l0.8,0.4c0.2,0.1,0.4,0,0.5-0.4c0,0.5-0.1,0.9-0.2,1.1c-0.2,0.2-0.3,0.3-0.4,0.2l-0.2-0.1l-0.6-0.3
		C119.2,65.1,118.8,64.8,118.5,64.3z M118.6,66.1l0.4-0.6c0.1-0.1,0.1-0.2,0.2-0.2c0.1,0,0.1,0.1,0.1,0.3v1.9l0.6-1.2l0.6,1.2v-1.6
		c0.1,0,0.3,0,0.4-0.1c0.1-0.1,0.2-0.2,0.2-0.4v2.9l-0.2,0.4c-0.2,0.3-0.3,0.4-0.3,0.4c0,0-0.1-0.1-0.3-0.4l-0.6-1.3l-0.7,1.4
		c-0.1,0.1-0.1,0.2-0.2,0.2c-0.1,0-0.1-0.1-0.1-0.2L118.6,66.1L118.6,66.1z"/>
	<path class="st1" d="M121.1,59.9l-0.4,1l-0.4-0.2c-0.4-0.2-0.7-0.3-1-0.3s-0.5,0.1-0.7,0.2l0.1-0.6c0.1-0.6,0.2-1,0.4-1.3
		c0.1-0.3,0.3-0.5,0.5-0.6s0.4-0.1,0.5,0c0.2,0,0.4,0.2,0.6,0.4c0.3,0.2,0.4,0.5,0.4,0.8c0.1-0.2,0.1-0.4,0.1-0.5
		c0-0.1,0-0.3-0.1-0.4l0.3-0.7l0.1,0.2c0,0.1,0.1,0.4,0.1,0.6C121.6,58.7,121.4,59.2,121.1,59.9z M119.7,59.5c0.2,0,0.6,0.1,1.3,0.5
		l0-0.1l-0.6-0.6c-0.2-0.2-0.4-0.3-0.7-0.3c-0.2,0-0.4,0.3-0.6,0.9C119.2,59.7,119.4,59.5,119.7,59.5z"/>
	<path class="st1" d="M124.6,67.5c0,0.4-0.2,0.7-0.5,1c-0.4,0.4-0.6,0.5-0.7,0.5c-0.1,0-0.3-0.1-0.5-0.3c-0.3-0.2-0.4-0.4-0.5-0.6
		c-0.1-0.2-0.2-0.5-0.3-0.8c0.1,0,0.1-0.1,0.1-0.2c0-0.1,0-0.2,0-0.3v-2.2c0-0.2-0.1-0.4-0.4-0.4c-0.1,0-0.1-0.1-0.1-0.2
		c0-0.2,0-0.3,0.1-0.5l0.5-2.1h0.9c0,0.4,0,0.8-0.1,1.1c-0.1,0.3-0.1,0.5-0.3,0.6c0-0.2,0-0.4,0-0.5c0-0.1-0.1-0.2-0.2-0.2h-0.4
		l-0.2,0.9c0.3,0.1,0.4,0.2,0.6,0.4c0.1,0.2,0.2,0.4,0.2,0.7V67c0,0.1,0,0.3-0.1,0.3c0,0.1,0.1,0.3,0.4,0.6c0.3,0.3,0.5,0.4,0.6,0.4
		c0.1,0,0.1,0,0.2-0.1c0.1,0,0.1-0.3,0.1-0.6v-2.9c0-0.2-0.1-0.4-0.4-0.4c-0.1,0-0.1-0.1-0.1-0.2c0-0.1,0-0.3,0.1-0.5l0.5-2.1h0.9
		c0,0.4,0,0.8-0.1,1.1c-0.1,0.3-0.1,0.5-0.3,0.6c0-0.2,0-0.4,0-0.5c0-0.1-0.1-0.2-0.2-0.2H124l-0.2,0.9c0.3,0.1,0.4,0.2,0.6,0.4
		c0.1,0.2,0.2,0.4,0.2,0.7L124.6,67.5L124.6,67.5z"/>
	<path class="st1" d="M140.7,67.1l1.4-6h1.4v0.3c-0.2,0-0.4,0.1-0.4,0.2c-0.1,0.1-0.1,0.2-0.2,0.4c0,0.2,0,0.5,0,0.9v4.8
		c0,0.3,0,0.4,0.1,0.5c0,0.1,0.1,0.2,0.2,0.3c0.1,0.1,0.2,0.1,0.4,0.1V69h-2.1v-0.3c0.2,0,0.4,0,0.4-0.1c0.1-0.1,0.2-0.2,0.2-0.4
		c0-0.1,0-0.4,0-0.7v-5.4l-1.6,6.9h-0.2l-1.6-6.7v4.5c0,0.5,0.1,0.9,0.2,1.2c0.1,0.3,0.3,0.5,0.6,0.6V69h-1.6v-0.3
		c0.2,0,0.4-0.2,0.5-0.5c0.1-0.3,0.2-0.6,0.2-1.1v-5.2c-0.1-0.2-0.2-0.3-0.3-0.4c-0.1-0.1-0.3-0.1-0.4-0.1v-0.3h1.5L140.7,67.1z
		 M138.1,68.7h0.7c-0.1-0.1-0.1-0.2-0.2-0.3c-0.1-0.1-0.1-0.3-0.1-0.4c0,0.2-0.1,0.3-0.1,0.4C138.3,68.5,138.3,68.6,138.1,68.7z
		 M138.4,61.5h-0.1c0.1,0.1,0.3,0.2,0.3,0.4c0,0.2,0.2,0.4,0.2,0.7l1.5,6.1c0-0.2,0.1-0.3,0.1-0.4c0-0.1,0-0.3-0.1-0.4l-1.3-5.4
		c-0.1-0.4-0.2-0.6-0.3-0.8C138.7,61.5,138.6,61.5,138.4,61.5z M142.4,67.7v-5.4c0-0.4,0-0.7,0.1-0.9c-0.1,0-0.2,0.1-0.2,0.1
		c0,0.1-0.1,0.2-0.1,0.3s0,0.3,0,0.6v5.4c0,0.3,0,0.4,0,0.5c0,0.1-0.1,0.2-0.2,0.3h0.1c0.2,0,0.3-0.1,0.3-0.2
		C142.4,68.4,142.4,68.1,142.4,67.7z"/>
	<path class="st1" d="M144,66.6c0-0.5,0.1-0.9,0.2-1.3c0.1-0.4,0.3-0.7,0.5-0.9c0.2-0.2,0.5-0.4,0.8-0.4c0.3,0,0.5,0.1,0.7,0.3
		c0.2,0.2,0.4,0.5,0.5,0.9c0.1,0.4,0.2,0.8,0.2,1.3c0,0.4,0,0.7-0.1,1c-0.1,0.3-0.2,0.6-0.3,0.8s-0.3,0.4-0.5,0.5
		c-0.2,0.1-0.4,0.2-0.6,0.2c-0.3,0-0.5-0.1-0.7-0.3c-0.2-0.2-0.4-0.5-0.5-0.9C144.1,67.6,144,67.1,144,66.6z M145.1,68.9
		c-0.3-0.3-0.5-0.6-0.6-1.1c-0.1-0.4-0.2-0.8-0.2-1.3c0-0.4,0-0.7,0.1-0.9c0.1-0.3,0.2-0.5,0.3-0.7c0.1-0.2,0.3-0.4,0.4-0.6
		c-0.2,0.1-0.4,0.3-0.5,0.6c-0.2,0.3-0.3,0.5-0.3,0.8c-0.1,0.3-0.1,0.6-0.1,1c0,0.3,0,0.5,0.1,0.7c0,0.3,0.1,0.5,0.2,0.7
		s0.2,0.4,0.3,0.5C144.8,68.8,145,68.9,145.1,68.9z M144.8,66.3c0,0.8,0.1,1.4,0.2,1.9c0.1,0.4,0.3,0.7,0.5,0.7
		c0.1,0,0.2-0.1,0.3-0.2c0.1-0.2,0.2-0.4,0.2-0.7c0.1-0.3,0.1-0.7,0.1-1.1c0-0.8-0.1-1.4-0.2-1.8c-0.1-0.4-0.3-0.6-0.5-0.6
		c-0.2,0-0.4,0.2-0.5,0.5C144.8,65.2,144.8,65.7,144.8,66.3z M145.9,68.7c0.2-0.2,0.3-0.4,0.4-0.7c0.1-0.4,0.1-0.7,0.1-1.2
		c0-1.2-0.2-2-0.6-2.3c0.2,0.3,0.3,0.6,0.3,0.9s0.1,0.9,0.1,1.5c0,0.4,0,0.7-0.1,1C146.1,68.2,146,68.4,145.9,68.7z"/>
	<path class="st1" d="M149.1,61.7l1-0.6h0.1V68c0,0.2,0,0.3,0.1,0.4c0.1,0.1,0.2,0.1,0.3,0.1v0.3l-1.1,0.4v-0.6
		c-0.3,0.4-0.6,0.6-0.9,0.6c-0.2,0-0.4-0.1-0.5-0.2c-0.2-0.1-0.3-0.3-0.4-0.5c-0.1-0.2-0.2-0.5-0.3-0.8c-0.1-0.3-0.1-0.6-0.1-0.9
		c0-0.5,0.1-0.9,0.2-1.3c0.1-0.4,0.3-0.7,0.5-0.9c0.2-0.2,0.5-0.3,0.8-0.3c0.2,0,0.4,0.1,0.7,0.3V63c0-0.3,0-0.5-0.1-0.7
		c0-0.1-0.2-0.3-0.3-0.4L149.1,61.7L149.1,61.7L149.1,61.7z M148.5,64.3c-0.2,0.1-0.3,0.2-0.4,0.3c-0.2,0.2-0.4,0.5-0.4,0.9
		c-0.1,0.4-0.2,0.8-0.2,1.2s0.1,0.8,0.2,1.1s0.2,0.6,0.4,0.8c0.2,0.2,0.4,0.3,0.6,0.3c0.2,0,0.3,0,0.4-0.1c-0.1,0-0.2,0-0.2,0
		c-0.1,0-0.3-0.1-0.4-0.2c-0.1-0.1-0.3-0.3-0.4-0.4c-0.1-0.2-0.2-0.4-0.3-0.7c-0.1-0.3-0.1-0.6-0.1-0.9
		C147.7,65.7,147.9,64.9,148.5,64.3z M149.5,68.1v-3.3c-0.1-0.2-0.2-0.3-0.3-0.4c-0.1-0.1-0.2-0.1-0.3-0.1c-0.2,0-0.3,0.1-0.4,0.3
		c-0.1,0.2-0.2,0.4-0.3,0.7c-0.1,0.3-0.1,0.7-0.1,1.2c0,0.4,0,0.8,0.1,1.1c0.1,0.3,0.2,0.5,0.3,0.7c0.1,0.2,0.3,0.2,0.4,0.2
		C149.1,68.6,149.3,68.4,149.5,68.1z M149.4,61.8L149.4,61.8c0.1,0.1,0.2,0.3,0.2,0.4c0,0.1,0.1,0.3,0.1,0.6v6.1
		c0.1-0.1,0.1-0.1,0.2-0.2c0-0.1,0.1-0.2,0.1-0.3v-5.6c0-0.3,0-0.6-0.1-0.7C149.7,61.9,149.5,61.8,149.4,61.8z"/>
	<path class="st1" d="M153.5,67.7l0.1,0.2c-0.1,0.3-0.2,0.6-0.4,0.8s-0.3,0.4-0.4,0.4c-0.2,0.1-0.3,0.2-0.5,0.2
		c-0.2,0-0.4-0.1-0.7-0.3c-0.2-0.2-0.4-0.5-0.5-0.9c-0.1-0.4-0.2-0.8-0.2-1.3c0-0.4,0-0.7,0.1-1.1c0.1-0.3,0.2-0.6,0.3-0.9
		c0.1-0.3,0.3-0.4,0.4-0.6s0.4-0.2,0.5-0.2c0.2,0,0.4,0.1,0.5,0.2c0.2,0.1,0.3,0.3,0.4,0.6c0.1,0.2,0.1,0.4,0.2,0.5
		c0,0.2,0.1,0.4,0.1,0.7h-2c0,0.4,0,0.7,0.1,1c0.1,0.3,0.2,0.5,0.3,0.6c0.1,0.2,0.2,0.3,0.4,0.4s0.3,0.1,0.4,0.1
		C153,68.2,153.3,68,153.5,67.7z M151.7,64.6c-0.4,0.5-0.6,1.3-0.6,2.2c0,0.6,0.1,1.2,0.4,1.6c0.3,0.4,0.5,0.6,0.8,0.6
		c0.2,0,0.4-0.1,0.5-0.2c0.2-0.1,0.4-0.3,0.5-0.6c-0.1,0.2-0.3,0.3-0.4,0.4c-0.1,0.1-0.3,0.1-0.5,0.1c-0.3,0-0.6-0.2-0.8-0.6
		c-0.2-0.4-0.3-0.9-0.3-1.5c0-0.4,0-0.7,0.1-1.1C151.5,65.3,151.6,65,151.7,64.6z M151.7,65.7h1.1v-0.2c0-0.2,0-0.4-0.1-0.6
		c0-0.2-0.1-0.3-0.2-0.4c-0.1-0.1-0.2-0.1-0.3-0.1c-0.2,0-0.3,0.1-0.4,0.4C151.8,65.1,151.7,65.3,151.7,65.7z M152.9,65.7h0.2
		c0-0.4-0.1-0.7-0.2-0.9c-0.1-0.2-0.3-0.3-0.5-0.4c0.1,0.1,0.2,0.3,0.3,0.4c0.1,0.2,0.1,0.4,0.1,0.8L152.9,65.7L152.9,65.7z"/>
	<path class="st1" d="M155.1,64.1v0.9c0.2-0.3,0.3-0.5,0.4-0.7c0.1-0.1,0.2-0.2,0.3-0.2c0.1,0,0.2,0.1,0.3,0.2s0.1,0.3,0.1,0.5
		c0,0.2,0,0.4-0.1,0.5c-0.1,0.1-0.2,0.2-0.3,0.2c0,0-0.1,0-0.2,0c-0.1,0-0.1-0.1-0.1-0.1c0,0,0-0.1-0.1-0.1c0,0,0-0.1-0.1-0.1
		c0,0,0,0-0.1,0c0,0-0.1,0-0.1,0.1c0,0.1-0.1,0.1-0.1,0.2v2.7c0,0.2,0,0.3,0,0.4c0,0.1,0.1,0.1,0.2,0.2c0.1,0,0.2,0,0.4,0v0.3h-1.8
		v-0.3h0.1c0.3,0,0.4-0.2,0.4-0.5v-2.5c0-0.4-0.2-0.7-0.5-0.9v-0.2l1.1-0.6H155.1L155.1,64.1z M154.5,65.7v2.5c0,0.1,0,0.2,0,0.3
		c0,0.1-0.1,0.1-0.1,0.2c0.1,0,0.2-0.1,0.3-0.2c0.1-0.1,0.1-0.3,0.1-0.5v-2.3c0-0.3,0-0.5-0.1-0.7c-0.1-0.2-0.2-0.2-0.3-0.2
		c0,0,0,0-0.1,0c0,0-0.1,0-0.1,0C154.4,65,154.5,65.3,154.5,65.7z M155.3,64.9c0.1,0,0.1,0,0.2,0.1c0.1,0.2,0.3,0.3,0.4,0.3
		c0.1,0,0.2-0.1,0.3-0.4c-0.1,0.1-0.1,0.1-0.1,0.1c-0.1,0-0.1,0-0.2-0.1c-0.1-0.1-0.2-0.2-0.2-0.2C155.5,64.7,155.4,64.8,155.3,64.9
		z"/>
	<path class="st1" d="M157.6,64.1v0.7c0.2-0.3,0.4-0.4,0.5-0.5c0.2-0.1,0.4-0.2,0.5-0.2c0.6,0,0.9,0.5,0.9,1.6v2.5
		c0,0.3,0,0.4,0.1,0.4c0.1,0.1,0.2,0.1,0.3,0.1V69h-1.6v-0.3c0.1,0,0.3,0,0.3-0.1c0.1-0.1,0.1-0.2,0.1-0.5v-2.7c0-0.2,0-0.4-0.1-0.5
		c0-0.1-0.1-0.2-0.2-0.3c-0.1-0.1-0.2-0.1-0.3-0.1s-0.3,0.1-0.4,0.2c-0.1,0.1-0.3,0.3-0.4,0.5v2.9c0,0.2,0,0.3,0.1,0.4
		c0,0.1,0.1,0.2,0.1,0.2c0.1,0,0.1,0,0.2,0V69h-1.6v-0.3c0.1,0,0.2,0,0.3-0.1c0.1-0.1,0.1-0.2,0.1-0.4v-2.5c0-0.3,0-0.4-0.1-0.6
		c-0.1-0.2-0.2-0.3-0.3-0.4v-0.2l1-0.5H157.6L157.6,64.1z M156.9,65.5v2.5c0,0.2,0,0.3,0,0.4c0,0.1,0,0.2-0.1,0.3
		c0.2,0,0.3-0.2,0.3-0.6v-2.7c0-0.2,0-0.4-0.1-0.5c-0.1-0.1-0.2-0.2-0.3-0.2c0,0,0,0-0.1,0c0,0,0,0-0.1,0
		C156.8,65,156.9,65.2,156.9,65.5z M158.9,65.4v2.7c0,0.1,0,0.2,0,0.3s0,0.1,0,0.2c0,0.1,0,0.1-0.1,0.2h0.1c0.1,0,0.2-0.1,0.2-0.2
		c0-0.1,0.1-0.4,0.1-0.6v-2.5c0-0.3,0-0.6-0.1-0.7c-0.1-0.2-0.2-0.3-0.4-0.3c0.1,0.1,0.2,0.2,0.3,0.4
		C158.9,64.9,158.9,65.1,158.9,65.4z"/>
	<path class="st1" d="M163.4,65.5v2.3c0,0.2,0,0.4,0.1,0.5s0.1,0.2,0.2,0.3s0.2,0.1,0.3,0.1c0.1,0,0.2,0,0.3,0V69h-2.3v-0.3
		c0.2,0,0.3,0,0.4-0.1c0.1,0,0.2-0.1,0.2-0.2c0.1-0.1,0.1-0.2,0.1-0.3c0-0.1,0-0.3,0-0.5v-4.9c0-0.4,0-0.7,0-0.9
		c0-0.2-0.1-0.3-0.2-0.4c-0.1-0.1-0.3-0.1-0.5-0.1v-0.3h2.2c0.1,0,0.4,0,0.7,0.1c0.1,0,0.3,0.1,0.4,0.2c0.1,0.1,0.3,0.3,0.4,0.4
		c0.1,0.2,0.2,0.4,0.3,0.6c0,0.2,0.1,0.5,0.1,0.8c0,0.3,0,0.6-0.1,0.9c-0.1,0.3-0.2,0.5-0.4,0.7c-0.2,0.2-0.4,0.4-0.6,0.4
		c-0.2,0.1-0.5,0.2-0.8,0.2L163.4,65.5L163.4,65.5L163.4,65.5z M162.7,62.8V68c0,0.4-0.1,0.6-0.2,0.7h0.1c0.3,0,0.4-0.2,0.4-0.6V63
		c0-0.4,0-0.8,0-0.9c0-0.1,0-0.3,0-0.4c0-0.1-0.1-0.2-0.1-0.2c-0.1,0-0.2-0.1-0.3-0.1c0.1,0.1,0.2,0.2,0.2,0.3
		c0,0.1,0.1,0.2,0.1,0.4C162.7,62.2,162.7,62.5,162.7,62.8z M163.4,65.1h0.4c0.3,0,0.5-0.1,0.7-0.2c0.2-0.1,0.3-0.3,0.4-0.6
		c0.1-0.3,0.2-0.6,0.2-1.1c0-0.7-0.1-1.2-0.4-1.5c-0.1-0.1-0.2-0.2-0.3-0.3c-0.1,0-0.3-0.1-0.4-0.1c-0.2,0-0.3,0-0.4,0.1
		c-0.1,0.1-0.1,0.2-0.2,0.4c0,0.2,0,0.4,0,0.8L163.4,65.1L163.4,65.1z M164.7,65.1c0.3-0.1,0.4-0.3,0.6-0.5c0.1-0.3,0.2-0.7,0.2-1.2
		c0-0.5-0.1-0.9-0.2-1.3c-0.1-0.3-0.3-0.4-0.6-0.5c0.1,0.1,0.2,0.3,0.3,0.4c0.1,0.2,0.2,0.4,0.2,0.6c0,0.2,0.1,0.5,0.1,0.8
		C165.3,64.2,165.1,64.8,164.7,65.1z"/>
	<path class="st1" d="M170,68.7V69h-1.6v-0.3c0.1,0,0.2,0,0.2,0s0.1,0,0.1-0.1c0,0,0.1-0.1,0.1-0.2c0-0.1,0-0.2,0-0.3v-2.6
		c0-0.4,0-0.6-0.1-0.8c-0.1-0.2-0.2-0.3-0.3-0.3c-0.2,0-0.5,0.2-0.8,0.7v3c0,0.2,0,0.4,0.1,0.4c0.1,0.1,0.2,0.1,0.4,0.1V69h-1.6
		v-0.3c0.2,0,0.3,0,0.3-0.1s0.1-0.2,0.1-0.4v-5.4c0-0.5-0.2-0.8-0.4-0.9v-0.2l1.1-0.6h0.1v3.8c0.2-0.2,0.3-0.4,0.5-0.5
		c0.2-0.1,0.4-0.2,0.5-0.2c0.2,0,0.4,0.1,0.5,0.2c0.1,0.1,0.3,0.3,0.3,0.5c0.1,0.2,0.1,0.5,0.1,0.9v2.3c0,0.2,0,0.4,0,0.5
		s0,0.2,0.1,0.3C169.8,68.7,169.9,68.8,170,68.7L170,68.7L170,68.7z M167,62.8v5.3c0,0.2,0,0.3,0,0.4c0,0.1,0,0.2-0.1,0.2h0.1
		c0.1,0,0.1,0,0.2-0.1s0.1-0.2,0.1-0.4v-5.4c0-0.3,0-0.4-0.1-0.6c0-0.1-0.1-0.2-0.2-0.3c-0.1-0.1-0.2-0.1-0.2-0.1c0,0-0.1,0-0.2,0
		c0.2,0.1,0.3,0.2,0.3,0.4C167,62.4,167,62.5,167,62.8z M169,65.3v2.9c0,0.1,0,0.3,0,0.3c0,0.1-0.1,0.2-0.1,0.2
		c0.1,0,0.2-0.1,0.3-0.2c0-0.1,0.1-0.3,0.1-0.5v-2.3c0-0.3,0-0.5,0-0.7c0-0.2-0.1-0.3-0.2-0.4c-0.1-0.1-0.2-0.2-0.4-0.2
		C168.8,64.5,169,64.8,169,65.3z"/>
	<path class="st1" d="M170.3,66.6c0-0.5,0.1-0.9,0.2-1.3c0.1-0.4,0.3-0.7,0.5-0.9c0.2-0.2,0.5-0.4,0.8-0.4c0.3,0,0.5,0.1,0.7,0.3
		c0.2,0.2,0.4,0.5,0.5,0.9c0.1,0.4,0.2,0.8,0.2,1.3c0,0.4,0,0.7-0.1,1c-0.1,0.3-0.2,0.6-0.3,0.8s-0.3,0.4-0.5,0.5
		c-0.2,0.1-0.4,0.2-0.6,0.2c-0.3,0-0.5-0.1-0.7-0.3c-0.2-0.2-0.4-0.5-0.5-0.9C170.4,67.6,170.3,67.1,170.3,66.6z M171.5,68.9
		c-0.3-0.3-0.5-0.6-0.6-1.1c-0.1-0.4-0.2-0.8-0.2-1.3c0-0.4,0-0.7,0.1-0.9c0.1-0.3,0.2-0.5,0.3-0.7c0.1-0.2,0.3-0.4,0.4-0.6
		c-0.2,0.1-0.4,0.3-0.5,0.6c-0.2,0.3-0.3,0.5-0.3,0.8c-0.1,0.3-0.1,0.6-0.1,1c0,0.3,0,0.5,0.1,0.7c0,0.3,0.1,0.5,0.2,0.7
		c0.1,0.2,0.2,0.4,0.3,0.5C171.2,68.8,171.3,68.9,171.5,68.9z M171.2,66.3c0,0.8,0.1,1.4,0.2,1.9c0.1,0.4,0.3,0.7,0.5,0.7
		c0.1,0,0.2-0.1,0.3-0.2c0.1-0.2,0.2-0.4,0.2-0.7c0.1-0.3,0.1-0.7,0.1-1.1c0-0.8-0.1-1.4-0.2-1.8s-0.3-0.6-0.5-0.6
		c-0.2,0-0.4,0.2-0.5,0.5C171.2,65.2,171.2,65.7,171.2,66.3z M172.3,68.7c0.2-0.2,0.3-0.4,0.4-0.7c0.1-0.4,0.1-0.7,0.1-1.2
		c0-1.2-0.2-2-0.6-2.3c0.2,0.3,0.3,0.6,0.3,0.9s0.1,0.9,0.1,1.5c0,0.4,0,0.7-0.1,1C172.4,68.2,172.4,68.4,172.3,68.7z"/>
	<path class="st1" d="M174.8,64.1v0.7c0.2-0.3,0.4-0.4,0.5-0.5c0.2-0.1,0.4-0.2,0.5-0.2c0.6,0,0.9,0.5,0.9,1.6v2.5
		c0,0.3,0,0.4,0.1,0.4c0.1,0.1,0.2,0.1,0.3,0.1V69h-1.6v-0.3c0.1,0,0.3,0,0.3-0.1c0.1-0.1,0.1-0.2,0.1-0.5v-2.7c0-0.2,0-0.4-0.1-0.5
		c0-0.1-0.1-0.2-0.2-0.3c-0.1-0.1-0.2-0.1-0.3-0.1s-0.3,0.1-0.4,0.2c-0.1,0.1-0.3,0.3-0.4,0.5v2.9c0,0.2,0,0.3,0.1,0.4
		c0,0.1,0.1,0.2,0.1,0.2c0.1,0,0.1,0,0.2,0V69h-1.6v-0.3c0.1,0,0.2,0,0.3-0.1c0.1-0.1,0.1-0.2,0.1-0.4v-2.5c0-0.3,0-0.4-0.1-0.6
		c-0.1-0.2-0.2-0.3-0.3-0.4v-0.2l1-0.5H174.8L174.8,64.1z M174.1,65.5v2.5c0,0.2,0,0.3,0,0.4c0,0.1,0,0.2-0.1,0.3
		c0.2,0,0.3-0.2,0.3-0.6v-2.7c0-0.2,0-0.4-0.1-0.5c-0.1-0.1-0.2-0.2-0.3-0.2c0,0,0,0-0.1,0s0,0-0.1,0
		C174.1,65,174.1,65.2,174.1,65.5z M176.1,65.4v2.7c0,0.1,0,0.2,0,0.3s0,0.1,0,0.2c0,0.1,0,0.1-0.1,0.2h0.1c0.1,0,0.2-0.1,0.2-0.2
		c0-0.1,0.1-0.4,0.1-0.6v-2.5c0-0.3,0-0.6-0.1-0.7c-0.1-0.2-0.2-0.3-0.4-0.3c0.1,0.1,0.2,0.2,0.3,0.4
		C176.2,64.9,176.1,65.1,176.1,65.4z"/>
	<path class="st1" d="M180,67.7l0.1,0.2c-0.1,0.3-0.2,0.6-0.4,0.8s-0.3,0.4-0.4,0.4c-0.2,0.1-0.3,0.2-0.5,0.2
		c-0.2,0-0.4-0.1-0.7-0.3c-0.2-0.2-0.4-0.5-0.5-0.9c-0.1-0.4-0.2-0.8-0.2-1.3c0-0.4,0-0.7,0.1-1.1c0.1-0.3,0.2-0.6,0.3-0.9
		c0.1-0.3,0.3-0.4,0.4-0.6s0.4-0.2,0.5-0.2c0.2,0,0.4,0.1,0.5,0.2c0.2,0.1,0.3,0.3,0.4,0.6c0.1,0.2,0.1,0.4,0.2,0.5
		c0,0.2,0.1,0.4,0.1,0.7h-2c0,0.4,0,0.7,0.1,1c0.1,0.3,0.2,0.5,0.3,0.6c0.1,0.2,0.2,0.3,0.4,0.4s0.3,0.1,0.4,0.1
		C179.5,68.2,179.7,68,180,67.7z M178.2,64.6c-0.4,0.5-0.6,1.3-0.6,2.2c0,0.6,0.1,1.2,0.4,1.6c0.3,0.4,0.5,0.6,0.8,0.6
		c0.2,0,0.4-0.1,0.5-0.2c0.2-0.1,0.4-0.3,0.5-0.6c-0.1,0.2-0.3,0.3-0.4,0.4c-0.1,0.1-0.3,0.1-0.5,0.1c-0.3,0-0.6-0.2-0.8-0.6
		c-0.2-0.4-0.3-0.9-0.3-1.5c0-0.4,0-0.7,0.1-1.1C178,65.3,178,65,178.2,64.6z M178.2,65.7h1.1v-0.2c0-0.2,0-0.4-0.1-0.6
		c0-0.2-0.1-0.3-0.2-0.4c-0.1-0.1-0.2-0.1-0.3-0.1c-0.2,0-0.3,0.1-0.4,0.4C178.2,65.1,178.2,65.3,178.2,65.7z M179.4,65.7h0.2
		c0-0.4-0.1-0.7-0.2-0.9c-0.1-0.2-0.3-0.3-0.5-0.4c0.1,0.1,0.2,0.3,0.3,0.4c0,0.2,0.1,0.4,0.1,0.8L179.4,65.7L179.4,65.7z"/>
	<path class="st1" d="M182.3,66.2h0.2c0.1,0.6,0.3,1.1,0.4,1.4c0.2,0.4,0.4,0.7,0.5,0.9c0.2,0.2,0.4,0.3,0.6,0.3
		c0.3,0,0.5-0.2,0.7-0.4c0.2-0.3,0.3-0.7,0.3-1.1s-0.1-0.8-0.2-1c-0.1-0.2-0.3-0.4-0.4-0.5c-0.2-0.1-0.4-0.2-0.7-0.3
		s-0.5-0.2-0.6-0.2c-0.2-0.1-0.4-0.3-0.5-0.4c-0.1-0.2-0.2-0.4-0.3-0.7c-0.1-0.3-0.1-0.6-0.1-0.9c0-0.3,0-0.6,0.1-0.9
		c0.1-0.3,0.2-0.5,0.3-0.7c0.1-0.2,0.3-0.4,0.4-0.5c0.2-0.1,0.4-0.2,0.5-0.2c0.1,0,0.3,0,0.5,0.1c0.2,0,0.4,0.1,0.4,0.1
		c0.1,0,0.2,0,0.3-0.1h0.3l0.1,2.3h-0.3c-0.2-0.7-0.4-1.2-0.7-1.6c-0.2-0.4-0.5-0.5-0.8-0.5c-0.2,0-0.3,0.1-0.4,0.2
		c-0.1,0.1-0.3,0.3-0.3,0.5c-0.1,0.2-0.1,0.4-0.1,0.7c0,0.4,0.1,0.7,0.2,0.9c0.2,0.2,0.4,0.4,0.7,0.4c0.3,0.1,0.5,0.2,0.8,0.3
		c0.2,0.1,0.4,0.2,0.5,0.3c0.3,0.2,0.4,0.5,0.6,0.9c0.1,0.4,0.2,0.8,0.2,1.3c0,0.4-0.1,0.9-0.2,1.3c-0.1,0.4-0.3,0.7-0.5,0.9
		c-0.2,0.2-0.5,0.4-0.8,0.4c-0.2,0-0.3,0-0.4-0.1c-0.1,0-0.2-0.1-0.4-0.3c-0.2-0.1-0.4-0.2-0.4-0.2c-0.2,0-0.3,0.1-0.4,0.4h-0.2
		L182.3,66.2L182.3,66.2L182.3,66.2z M182.4,62.6c0,0.3-0.1,0.5-0.1,0.7c0,0.2,0,0.4,0.1,0.6c0,0.2,0.1,0.4,0.2,0.6
		c0.1,0.2,0.2,0.3,0.3,0.4c0.1,0.2,0.3,0.3,0.4,0.3c0.2,0.1,0.4,0.1,0.7,0.2c0.3,0.1,0.5,0.2,0.6,0.3c0.2,0.1,0.4,0.3,0.5,0.6
		c0.1,0.3,0.2,0.6,0.2,0.9c0,0.3,0,0.5-0.1,0.9c0.2-0.3,0.3-0.7,0.3-1.1c0-0.4-0.1-0.8-0.2-1c-0.1-0.3-0.3-0.4-0.5-0.5
		c-0.2-0.1-0.4-0.2-0.8-0.3s-0.5-0.2-0.5-0.2c-0.3-0.1-0.5-0.4-0.7-0.7c-0.2-0.4-0.2-0.7-0.2-1.2c0-0.1,0-0.2,0-0.2
		C182.4,62.9,182.4,62.7,182.4,62.6z M182.4,67.2v1.5c0.1-0.1,0.1-0.2,0.2-0.3c0.1,0,0.1-0.1,0.3-0.1c-0.1-0.2-0.1-0.3-0.2-0.3
		c0-0.1-0.1-0.2-0.1-0.3C182.6,67.7,182.5,67.5,182.4,67.2z M184.9,62.6l-0.1-1.1c-0.1,0-0.1,0.1-0.2,0.1c-0.1,0-0.2,0-0.3-0.1
		c0.1,0.1,0.2,0.2,0.2,0.3c0.1,0.1,0.1,0.3,0.2,0.4C184.8,62.4,184.9,62.5,184.9,62.6z"/>
	<path class="st1" d="M189.6,68.7V69H188v-0.3c0.1,0,0.2,0,0.2,0s0.1,0,0.1-0.1s0.1-0.1,0.1-0.2c0-0.1,0-0.2,0-0.3v-2.6
		c0-0.4,0-0.6-0.1-0.8c-0.1-0.2-0.2-0.3-0.3-0.3c-0.2,0-0.5,0.2-0.8,0.7v3c0,0.2,0,0.4,0.1,0.4c0.1,0.1,0.2,0.1,0.4,0.1V69h-1.6
		v-0.3c0.2,0,0.3,0,0.3-0.1c0,0,0.1-0.2,0.1-0.4v-5.4c0-0.5-0.2-0.8-0.4-0.9v-0.2l1.1-0.6h0.1v3.8c0.2-0.2,0.3-0.4,0.5-0.5
		c0.2-0.1,0.4-0.2,0.5-0.2c0.2,0,0.4,0.1,0.5,0.2c0.1,0.1,0.3,0.3,0.3,0.5c0.1,0.2,0.1,0.5,0.1,0.9v2.3c0,0.2,0,0.4,0,0.5
		s0,0.2,0.1,0.3C189.4,68.7,189.5,68.8,189.6,68.7L189.6,68.7L189.6,68.7z M186.6,62.8v5.3c0,0.2,0,0.3,0,0.4c0,0.1,0,0.2-0.1,0.2
		h0.1c0.1,0,0.1,0,0.2-0.1c0.1-0.1,0.1-0.2,0.1-0.4v-5.4c0-0.3,0-0.4-0.1-0.6c0-0.1-0.1-0.2-0.2-0.3c-0.1-0.1-0.2-0.1-0.2-0.1
		c0,0-0.1,0-0.2,0c0.2,0.1,0.3,0.2,0.3,0.4C186.6,62.4,186.6,62.5,186.6,62.8z M188.6,65.3v2.9c0,0.1,0,0.3,0,0.3
		c0,0.1-0.1,0.2-0.1,0.2c0.1,0,0.2-0.1,0.3-0.2c0.1-0.1,0.1-0.3,0.1-0.5v-2.3c0-0.3,0-0.5,0-0.7s-0.1-0.3-0.2-0.4
		c-0.1-0.1-0.2-0.2-0.4-0.2C188.5,64.5,188.6,64.8,188.6,65.3z"/>
	<path class="st1" d="M190,66.6c0-0.5,0.1-0.9,0.2-1.3c0.1-0.4,0.3-0.7,0.5-0.9c0.2-0.2,0.5-0.4,0.8-0.4c0.3,0,0.5,0.1,0.7,0.3
		c0.2,0.2,0.4,0.5,0.5,0.9c0.1,0.4,0.2,0.8,0.2,1.3c0,0.4,0,0.7-0.1,1c-0.1,0.3-0.2,0.6-0.3,0.8s-0.3,0.4-0.5,0.5
		c-0.2,0.1-0.4,0.2-0.6,0.2c-0.3,0-0.5-0.1-0.7-0.3c-0.2-0.2-0.4-0.5-0.5-0.9C190,67.6,190,67.1,190,66.6z M191.1,68.9
		c-0.3-0.3-0.5-0.6-0.6-1.1c-0.1-0.4-0.2-0.8-0.2-1.3c0-0.4,0-0.7,0.1-0.9c0.1-0.3,0.2-0.5,0.3-0.7c0.1-0.2,0.3-0.4,0.4-0.6
		c-0.2,0.1-0.4,0.3-0.5,0.6c-0.2,0.3-0.3,0.5-0.3,0.8c-0.1,0.3-0.1,0.6-0.1,1c0,0.3,0,0.5,0.1,0.7c0,0.3,0.1,0.5,0.2,0.7
		c0.1,0.2,0.2,0.4,0.3,0.5C190.8,68.8,190.9,68.9,191.1,68.9z M190.7,66.3c0,0.8,0.1,1.4,0.2,1.9c0.1,0.4,0.3,0.7,0.5,0.7
		c0.1,0,0.2-0.1,0.3-0.2c0.1-0.2,0.2-0.4,0.2-0.7c0.1-0.3,0.1-0.7,0.1-1.1c0-0.8-0.1-1.4-0.2-1.8s-0.3-0.6-0.5-0.6
		c-0.2,0-0.4,0.2-0.5,0.5C190.8,65.2,190.7,65.7,190.7,66.3z M191.9,68.7c0.2-0.2,0.3-0.4,0.4-0.7c0.1-0.3,0.1-0.7,0.1-1.2
		c0-1.2-0.2-2-0.6-2.3c0.2,0.3,0.3,0.6,0.3,0.9c0.1,0.4,0.1,0.9,0.1,1.5c0,0.4,0,0.7-0.1,1C192.1,68.2,192,68.4,191.9,68.7z"/>
	<path class="st1" d="M194.3,64.1v0.6c0.2-0.2,0.3-0.4,0.4-0.4c0.1-0.1,0.3-0.2,0.5-0.2c0.2,0,0.3,0.1,0.5,0.2s0.3,0.3,0.4,0.5
		c0.1,0.2,0.2,0.5,0.3,0.8c0.1,0.3,0.1,0.6,0.1,1c0,0.5-0.1,0.9-0.2,1.3c-0.1,0.4-0.3,0.7-0.5,0.9c-0.2,0.2-0.5,0.3-0.8,0.3
		c-0.2,0-0.4-0.1-0.7-0.3v2c0,0.2,0,0.3,0,0.4s0.1,0.2,0.1,0.2c0.1,0,0.1,0.1,0.2,0.1h0.2v0.3h-1.6v-0.3c0.1,0,0.2,0,0.3,0
		c0.1,0,0.1-0.1,0.1-0.1c0-0.1,0-0.2,0-0.3v-5.2c0-0.3,0-0.5-0.1-0.6c-0.1-0.2-0.2-0.3-0.3-0.4v-0.3L194.3,64.1L194.3,64.1
		L194.3,64.1z M193.9,70.6v-5c0-0.4,0-0.6-0.1-0.8c-0.1-0.2-0.2-0.2-0.4-0.2c0.1,0.1,0.2,0.2,0.3,0.4c0,0.1,0.1,0.3,0.1,0.6v5.2
		c0,0.2,0,0.3,0,0.4c0,0.1-0.1,0.2-0.1,0.2c0.2,0,0.3-0.1,0.3-0.2C193.9,71.1,193.9,70.9,193.9,70.6z M194.3,65.1v3.3
		c0.2,0.3,0.4,0.5,0.6,0.5c0.2,0,0.3-0.1,0.4-0.2c0.1-0.2,0.2-0.4,0.3-0.7c0.1-0.3,0.1-0.7,0.1-1.2c0-0.4,0-0.8-0.1-1.1
		c-0.1-0.3-0.2-0.5-0.3-0.7c-0.1-0.2-0.3-0.2-0.4-0.2C194.7,64.7,194.5,64.8,194.3,65.1z M194.9,64.5L194.9,64.5
		c0.4,0,0.6,0.2,0.7,0.6c0.2,0.4,0.3,0.9,0.3,1.6c0,0.5,0,1-0.1,1.3c-0.1,0.3-0.2,0.5-0.4,0.8c0.2-0.1,0.3-0.2,0.4-0.4
		c0.1-0.2,0.2-0.4,0.2-0.7c0.1-0.3,0.1-0.6,0.1-0.9c0-0.4,0-0.8-0.1-1.1c-0.1-0.3-0.1-0.5-0.2-0.7c-0.1-0.2-0.2-0.3-0.3-0.4
		c-0.1-0.1-0.2-0.1-0.3-0.1C195,64.4,195,64.4,194.9,64.5z"/>
</g>
<g>
	<path class="st0" d="M78.5,30.4c0,6.2-1,9.3-3,9.3c-2.1,0-3.3-3.2-3.7-9.6V17.4c0-1.3,0.4-2.7,1.1-4.1c0.7-1.4,1.5-2.2,2.4-2.2
		c0.4,0,1,0.5,1.7,1.4c0.7,0.9,1.4,1.4,2.1,1.4c-0.2,1.3-0.4,2.4-0.8,3.3c-0.4,0.9-0.9,1.3-1.4,1.4c-0.5,0.1-1-0.2-1.4-0.7
		s-0.8-0.8-1.1-0.8c-0.4,0-0.7,0.4-0.9,1.1c-0.3,0.8-0.4,1.6-0.4,2.7v5.6c0,1.4,0.2,2.8,0.5,4.2c0.4,1.4,1.1,2,2.2,1.8
		c1.1-0.2,1.6-1.1,1.6-2.5c0-0.5-0.1-0.9-0.3-1.2c-0.2-0.3-0.4-0.3-0.6,0.1c-0.2,0.4-0.6,0.6-1.1,0.6c-1.1,0-1.6-1.1-1.6-3.4
		c0-3,0.8-4.5,2.3-4.5c0.4,0,0.8,0.2,1.2,0.7c0.4,0.5,0.8,1.2,0.9,2.2C78.4,25.5,78.5,27.5,78.5,30.4z"/>
	<path class="st0" d="M98.6,28.3c0,3-0.7,5.6-2.2,8c-1.5,2.3-3.5,3.5-6,3.5c-2.7,0-4.8-0.9-6.2-2.6c-1.4-1.8-2.2-4-2.3-6.9
		c1.8,0,3.2-0.3,4.1-0.8c0.9-0.5,1.4-1.3,1.4-2.1c0-0.9-0.6-1.2-1.9-1.1c-1.3,0.1-2.5,0.5-3.7,1.1v-11c0-0.9,0.5-2.1,1.6-3.3
		c1.1-1.3,1.8-1.9,2.1-1.9c0.3,0,0.9,0.4,1.8,1.1c0.8,0.7,1.8,1.3,2.9,1.4c-0.8,3.3-1.6,5.1-2.3,5.1c-0.7,0-1.3-0.2-1.8-0.7
		c-0.5-0.4-1.1-0.5-1.6-0.3c-0.6,0.3-1.1,1.2-1.5,2.9c2-0.8,3.5-0.7,4.6,0.1c1.1,0.9,1.7,2.6,1.7,5.2c0,1.9-0.7,3.7-2.2,5.3
		c0.1,0.6,0.6,1.2,1.5,1.6c0.9,0.4,2,0.7,3.4,0.7c1.5,0,2.7-0.4,3.7-1.1c0.9-0.8,1.4-2,1.4-3.8c0-0.7-0.4-1.3-1.1-2
		c-0.8-0.6-2.2-0.4-4.2,0.6v-10c0-0.9,0.7-2.2,2.2-3.8c1.4-1.6,3-2.4,4.7-2.4c2,0,3.9,0.7,5.7,2.2c1.8,1.4,2.7,2.8,2.7,4.2v18.5
		c0,0.8-0.2,1.6-0.7,2.5c-0.4,0.9-0.9,1.3-1.6,1.3c-1.2,0-2.2-1-3.1-2.9c-0.9-2-1.3-3.6-1.3-5.1c0-0.9,0.9-1.8,2.8-2.7
		c1.8-0.9,2.8-2.3,2.8-4.5c0-1.4-1.1-3-3.1-4.9c-2.1-1.8-3.8-2.7-5-2.7c-1.1,0-2,0.3-2.9,0.9c-0.9,0.6-1.6,1.5-2,2.8
		c1.9-1,3.3-0.8,4.4,0.7C98.1,22.8,98.6,25.1,98.6,28.3z M105.4,32c0.2,0,0.4-0.3,0.4-0.8v-2.2c-0.4,0.7-0.7,1.2-0.9,1.4
		c-0.2,0.3-0.2,0.6,0,1C105,31.7,105.2,32,105.4,32z"/>
	<path class="st0" d="M111.9,20.2c1.4-0.5,2.8-0.3,4,0.5c1.1,0.9,1.7,2.6,1.7,5.2c0,1.9-0.7,3.7-2.2,5.3c0.1,0.6,0.6,1.2,1.5,1.6
		c0.9,0.4,2,0.7,3.4,0.7c1.5,0,2.8-0.6,3.9-1.9c1.1-1.3,2-3,2.8-5.2c0,4.2-0.7,7.4-2.2,9.7c-1.5,2.3-3.5,3.5-6,3.5
		c-2.7,0-4.8-0.9-6.2-2.6c-1.4-1.8-2.2-4-2.3-6.9c1.8,0,3.2-0.3,4.1-0.8c0.9-0.5,1.4-1.3,1.4-2.1s-0.6-1.2-1.9-1.1
		c-1.3,0.1-2.5,0.5-3.7,1.1v-8.9c0.7-1.8,1.7-3.5,3.2-5.1c1.4-1.5,3.3-2.3,5.8-2.3c2.2,0,4,1,5.6,3c1.5,2,2.3,4.1,2.3,6.4
		c0,1.8-0.4,3.4-1.1,4.9c-0.7,1.4-1.8,2.2-3.2,2.2c-2.3,0-3.4-1.3-3.4-3.9s0.7-3.9,2.2-3.9c0.9,0,1.6,0.4,2,1.3
		c-0.1,1,0.2,1.5,0.9,1.5c0.7,0,1-0.3,1-1c0-1.3-0.6-2.3-1.8-3.2c-1.2-0.9-2.7-1.3-4.3-1.3c-2.2,0-3.7,0.4-4.7,1
		C113.4,18.7,112.6,19.4,111.9,20.2z"/>
	<path class="st0" d="M143.4,33.4c0.6,0,1.5-0.9,2.7-2.8c1.1-1.8,2.5-2.8,4-2.8c0.9,0,1.8,0.6,2.5,1.7c0.8,1.1,1.1,2.5,1.1,4
		c0,1.6-0.3,3-1,4.2c-0.6,1.3-1.4,1.8-2.3,1.8c-0.9,0-1.6-0.3-2.1-0.9c-0.4-0.6-0.7-1.6-0.7-2.9c0-1.3,0.2-2,0.5-2.3
		c0.4-0.6,0.9-0.9,1.6-0.9c0,0.6,0.2,0.9,0.5,0.9c0.4,0,0.5-0.3,0.5-0.9c0-0.8-0.5-1.3-1.6-1.3c-0.9,0-1.9,1.4-2.7,4.1
		c-0.9,2.7-2.3,4.1-4.3,4.1c-1.3,0-2.5-0.8-3.6-2.3s-1.6-3.1-1.6-4.8v-2.5h1.1c1.4,0,2.5-0.3,3.3-0.8c0.8-0.5,1.2-1.3,1.2-2.1
		c0-0.9-0.6-1.2-1.9-1.1c-1.3,0.1-2.5,0.5-3.7,1.1v-8.8c0.7-1.8,1.7-3.5,3.2-5.1s3.3-2.3,5.8-2.3c2.2,0,4,1,5.6,3
		c1.5,2,2.3,4.1,2.3,6.4c0,1.3-0.4,2.7-1.1,4.1c-0.7,1.4-1.8,2.2-3.2,2.2c-2.3,0-3.4-1.3-3.4-3.9s0.7-3.9,2.2-3.9
		c0.9,0,1.6,0.4,2,1.3c-0.1,1,0.2,1.5,0.9,1.5c0.7,0,1-0.3,1-1c0-0.9-0.6-1.7-1.8-2.5c-1.2-0.8-2.7-1.2-4.3-1.2
		c-2.2,0-3.7,0.4-4.7,1c-1,0.7-1.8,1.4-2.5,2.2c1.4-0.5,2.8-0.3,4,0.5s1.7,2.6,1.7,5.2c0,2.3-0.8,4.3-2.5,6.2
		C142.3,33,142.8,33.4,143.4,33.4z M162.1,47.4c0,3.8-1.1,5.8-3.3,5.8c-1.5,0-2.6-0.9-3.3-2.9c-0.7,1.9-1.8,2.9-3.3,2.9
		c-2.6,0-3.9-1.6-3.9-5c1.2,0,2-0.4,2.3-1.1c0.3-0.7,0.5-1.2,0.5-1.5c0-0.3-0.2-0.5-0.5-0.5c-0.4,0-0.5,0.4-0.5,1.3
		c-1.1,0-1.6-0.6-1.6-1.9c0-1.9,0.6-2.9,2-2.9c1.3,0,2,0.9,2,2.9c0,1.3-0.2,2.5-0.5,3.6c0,0.5,0.4,0.8,1.1,0.8
		c1.2,0,2.1-0.9,2.8-2.7c0.7,1.8,1.8,2.7,3,2.7c1.3,0,2-0.8,2-2.5V28.2c0-0.6-0.5-1.1-1.4-1.5c-0.9-0.4-2.1-0.1-3.6,0.7V17.3
		c0-0.9,0.7-2.2,2.1-3.8c1.4-1.6,2.9-2.4,4.4-2.4c2,0,3.9,0.7,5.7,2.2c1.8,1.4,2.7,2.8,2.7,4.2v18.5c0,0.8-0.2,1.6-0.7,2.5
		s-0.9,1.3-1.6,1.3c-1.2,0-2.2-1-3.1-2.9c-0.9-2-1.3-3.6-1.3-5.1c0-0.9,0.9-1.8,2.8-2.7c1.8-0.9,2.8-2.3,2.8-4.5
		c0-1.4-1.1-3-3.1-4.9c-2.1-1.8-3.7-2.7-4.8-2.7c-1.1,0-2.2,0.3-3,0.8c-0.9,0.6-1.4,1.5-1.8,2.8c1.3-0.7,2.5-0.7,3.5-0.1
		c1,0.7,1.7,1.6,2.1,2.9L162.1,47.4L162.1,47.4z M169.2,31.2v-2.2c-0.4,0.7-0.7,1.2-0.9,1.4c-0.2,0.3-0.2,0.6,0,1
		c0.2,0.4,0.4,0.6,0.6,0.6C169.1,32,169.2,31.7,169.2,31.2z"/>
	<path class="st0" d="M176.1,29.3c0.6,1.4,1.4,2.4,2.5,3c1.1,0.6,2.5,0.9,4.4,0.9c1.5,0,2.9-0.4,4-1.3c1.1-0.8,1.7-2,1.7-3.3
		c0-0.7-0.4-1.3-1.4-2c-0.9-0.6-2.4-0.4-4.4,0.6v-11c0-0.9,0.5-2.1,1.4-3.3c0.9-1.3,1.6-1.9,1.8-1.9s0.9,0.4,1.8,1.3
		c0.9,0.9,1.7,1.3,2.4,1.3c-0.6,3.5-1.2,5.2-1.8,5.2s-1.2-0.2-1.7-0.7c-0.5-0.4-1.1-0.5-1.6-0.3c-0.5,0.3-0.9,1.1-1.1,2.7
		c1.9-1,3.4-0.8,4.6,0.7c1.2,1.4,1.8,3.8,1.8,6.9c0,1.8-0.3,3.4-0.8,4.9c0.8,0.3,1.8,0.5,3,0.5c1.5,0,2.7-0.4,3.7-1.1
		c0.9-0.8,1.4-2,1.4-3.8c0-0.7-0.4-1.3-1.4-2c-0.9-0.6-2.4-0.4-4.4,0.6v-11c0-0.9,0.5-2.1,1.4-3.3c0.9-1.3,1.6-1.9,1.8-1.9
		s0.9,0.4,1.8,1.3c0.9,0.9,1.7,1.3,2.4,1.3c-0.6,3.5-1.2,5.2-1.8,5.2s-1.2-0.2-1.7-0.7c-0.5-0.4-1.1-0.5-1.6-0.3
		c-0.5,0.3-0.9,1.1-1.1,2.7c1.9-1,3.4-0.8,4.6,0.7c1.2,1.4,1.8,3.8,1.8,6.9c0,3-0.7,5.6-2.2,8c-1.5,2.3-3.4,3.5-5.8,3.5
		c-1.8,0-3.4-0.5-4.8-1.5c-1.2,1-2.8,1.5-4.7,1.5c-5.4,0-8.1-5.3-8.1-15.9c0-8.5,1.4-12.8,4.3-12.8c2.3,0,3.4,3,3.4,9
		c0,3.1-0.4,5.2-1.1,6.5s-1.5,1.8-2.4,1.6c-0.9-0.2-1.5-0.9-2-2c-0.4-1.2-0.4-2.4,0-3.7c0.4-1.3,0.9-2.2,1.6-2.6
		c0.3,0.8,0.7,1.2,1.2,1.4c0.6,0.2,0.9-0.2,1.1-1.1c0.1-0.9-0.4-1.6-1.4-2c-0.7-0.3-1.4,0.1-2.1,1.1c-0.7,1-1.1,2.2-1.3,3.4
		c-0.1,0.4,0,1.3,0,2.5C175.1,26.5,175.5,27.9,176.1,29.3z"/>
</g>
</svg>
