<?xml version="1.0" encoding="utf-8"?>
<!-- Generator: Adobe Illustrator 21.0.0, SVG Export Plug-In . SVG Version: 6.00 Build 0)  -->
<svg version="1.1" id="Layer_1" xmlns="http://www.w3.org/2000/svg" xmlns:xlink="http://www.w3.org/1999/xlink" x="0px" y="0px"
	 viewBox="0 0 612 300" style="enable-background:new 0 0 612 300;" xml:space="preserve">
<style type="text/css">
	.st0{fill:#2E3192;}
	.st1{fill:#ED1C24;}
</style>
<g>
	<path class="st0" d="M110.9,173.6l-1.5,8.2c-0.2,1.8-0.7,4.3-1.2,7.3c-2.8,15.7-5.1,26-6.9,30.9c-0.3,1-1.1,2.4-2,4.4
		c-3.3,4.9-7.5,7.3-12.3,7.3c-3.8,0-6.9-1.4-9.3-4.1c-2.4-2.7-3.5-6.2-3.5-10.4c0-3.1,0.7-8.5,2-16.5c1.4-7.9,2.8-15.5,4.6-22.6
		c-4.1-1.2-6.1-4-6.1-8.4c0-3.1,0.7-6.5,1.9-10.4c1.3-3.8,2.8-7.3,4.8-10.4c2-3.1,3.7-5,5.6-6c0.8-3.6,2.3-11.1,4.5-22.5
		c5-24.8,9-41.5,12-50c1.2-2.8,2.3-5,3.2-6.6c2.7-4.1,6.1-6.1,10.3-6.1c2.6,0,4.9,0.7,6.9,2.2c2,1.5,3.5,3.4,4.6,5.9
		c1.1,2.5,1.6,5.5,1.6,8.9c0,4.7-3.7,24.7-11.2,59.7c-0.1,0.6-0.2,1.5-0.5,2.5c-0.2,1.1-0.5,2.1-0.7,3.1l-0.3,1l28.7-1l1.4-7.8
		c1.6-8.5,3.3-16.9,5-25.1c1.8-8.3,3.3-14.9,4.6-19.9s2.5-9.4,3.8-13.3c1.3-3.8,2.5-6.7,3.7-8.6c2.7-4.7,6.4-7.1,11.2-7.1
		c8.1,0,12.1,5.6,12.1,16.9c0,10.6-3.5,29.8-10.6,57.7c-1.1,4.2-1.6,6.7-1.9,7.6c0.2-0.1,0.4-0.2,0.6-0.2c0.2-0.1,0.3-0.1,0.6-0.1
		c2.8,0,5,0.8,6.7,2.4s2.4,3.8,2.4,6.5c0,1.8-0.7,4.5-2.1,7.9c-1.4,3.4-2.8,6.4-4.5,9c-1.5,2.6-2.9,4.5-4.1,5.5
		c-1.1,0.9-3.2,1.9-6.3,2.8l-0.3,2c-0.3,1.2-0.9,3.5-1.6,6.8c-1.1,4.8-2.2,9.7-3.3,14.5c-1.1,4.9-2.1,8.6-2.8,11.3
		c-0.7,2.7-1.5,5-2.2,6.8c-0.9,2-1.9,3.7-3,5.1c-2.5,3.1-5.4,5.6-8.5,7.6c-3.3,2-5.9,2.9-8.1,2.9c-2.4,0-4.4-1-5.8-2.8
		c-1.4-1.9-2.1-4.6-2.1-8.1c0-5.9,2-18.4,5.9-37.3c0.9-4.2,1.5-7.2,2-9.1L110.9,173.6z"/>
</g>
<g>
	<path class="st0" d="M210.6,123.8l-2.1,9.9c-2.8,12.8-5.3,25.5-7.7,38.1c-1.1,6.1-2.8,16.8-5.2,32.1c3.5-0.6,8.3-2,14.2-4.3
		c3.8-1.5,6.1-2.2,6.9-2.2c1.5,0,2.2,1.1,2.2,3.5c0,2.8-0.8,6.6-2.4,11.5c-1.6,5-3.5,9.2-5.5,12.7c-1.4,2.6-3.5,4.3-6.3,5.4
		c-2.8,1-7.1,1.5-12.9,1.5c-5.5,0-9.7-0.3-12.7-1c-0.1,0-0.7-0.4-2.1-1.2c-2.4-2-3.7-6.1-3.7-12.5c0-4.6,0.7-12.9,2-25
		c1.3-12,3.3-27.1,5.9-45.1c5.8-40,10.1-64.8,13.1-74.2c0.9-3.3,2.1-5.7,3.5-7.5c1.4-1.8,3.3-3.2,5.9-4.2c2.4-1,5.1-1.5,8.2-1.5
		c2.8,0,4.9,0.7,6.1,2.2c1.1,1.5,1.8,4,1.8,7.5c0,3.4-0.7,9.8-2.3,19C215.9,97.8,213.6,109.5,210.6,123.8z"/>
</g>
<g>
	<path class="st1" d="M249.6,204.7v13l-1.5,2.6v-17.6h-4.4l-0.4,1.7c0.6,0.2,1,0.5,1.3,1c0.3,0.4,0.5,1,0.5,1.7v8.6
		c0,0.9-0.5,1.7-1.4,2.6c-0.9,0.9-1.5,1.3-1.8,1.3c-0.3,0-0.7-0.2-1.2-0.8c-0.7-0.6-1.1-1.1-1.4-1.6c-0.3-0.5-0.6-1.2-0.7-2
		c0.2-0.1,0.2-0.2,0.3-0.5c0.1-0.2,0.1-0.4,0.1-0.7v-5.6c0-0.5-0.3-0.9-1.1-1.1c-0.2-0.1-0.3-0.2-0.3-0.6s0.1-0.8,0.2-1.3l1.2-5.4
		h2.3c0,1.1-0.1,2-0.2,2.7c-0.2,0.7-0.3,1.3-0.7,1.6c0.1-0.5,0.1-1,0.1-1.2c0-0.3-0.2-0.4-0.4-0.4h-1l-0.5,2.3
		c0.7,0.2,1.1,0.5,1.5,1c0.3,0.4,0.5,1,0.5,1.7v6.7c0,0.3-0.1,0.7-0.2,0.8c0,0.3,0.3,0.7,1.1,1.5c0.7,0.7,1.2,1.1,1.5,1.1
		c0.2,0,0.3-0.1,0.5-0.2c0.2-0.1,0.2-0.7,0.2-1.6v-7.8c0-0.5-0.3-0.9-0.9-1.1c-0.2-0.1-0.3-0.2-0.3-0.6c0-0.3,0.1-0.8,0.2-1.3
		l1.1-4.9h6.1v2.6c0.7-1.7,1.5-2.6,2.4-2.6h2.2V218l-1.5,2.6V203h-0.9C250.9,202.7,250.1,203.4,249.6,204.7z"/>
	<path class="st1" d="M262.3,204.2c0.7,0.9,1,1.7,1,2.4v11.1l-0.6,1c-0.4,0.7-0.7,1-0.7,1c-0.2,0-0.3-0.3-0.7-1.1l-1.5-3.2l-1.8,3.7
		c-0.2,0.3-0.3,0.6-0.5,0.6s-0.2-0.2-0.2-0.5v-6.1l-1-1.3c-0.2-0.2-0.3-0.7-0.3-1.1c0-0.9,0.1-1.5,0.3-2l0.7-1.4
		c0.2-0.5,0.5-0.7,0.8-0.7c0.3,0,0.6,0.2,0.9,0.8v8.2l1.5-3.1l1.5,3.1v-9c0-0.7-0.2-1.3-0.4-2c-0.1,0-0.2,0-0.3,0h-1.5
		c-0.8,0-1.3,0.2-1.5,0.7c-0.5-0.2-0.7-0.7-0.7-1.3v-6.1c0-0.3-0.1-0.5-0.2-0.5s-0.3,0.2-0.6,0.4c0.5-1.9,1-2.8,1.4-2.8
		c0.6,0,0.9,1,0.9,3v4.8h1.6c-0.1-0.2-0.1-0.5-0.1-0.7c0-0.7,0.2-1.1,0.4-1.5s0.7-0.7,1.1-0.7s0.9,0.2,1.1,0.8
		c0.2,0.5,0.4,1.1,0.4,1.6s-0.2,1.1-0.7,1.6C262.4,204,262.3,204.1,262.3,204.2z M257.1,211.4v-1l-0.3,0.6L257.1,211.4z
		 M261.1,202.7c0.3,0,0.5-0.1,0.6-0.2c0.1-0.1,0.1-0.2-0.1-0.6c-0.3-0.7-0.6-0.9-0.7-0.3C260.8,201.9,260.9,202.3,261.1,202.7z"/>
	<path class="st1" d="M272.4,214.4c0,0.3-0.1,0.7-0.2,0.8c0,0.3,0.3,0.7,1.1,1.5c0.7,0.7,1.2,1.1,1.5,1.1c0.2,0,0.3-0.1,0.5-0.2
		c0.2-0.1,0.2-0.7,0.2-1.6v-7.3c0-0.5-0.3-0.9-1.1-1.1c-0.2-0.1-0.3-0.2-0.3-0.6c0-0.3,0.1-0.8,0.2-1.3l1.2-5.4h2.3
		c0,1.1-0.1,2-0.2,2.7c-0.2,0.7-0.3,1.3-0.7,1.6c0.1-0.5,0.1-1,0.1-1.2c0-0.3-0.2-0.4-0.4-0.4h-1l-0.5,2.3c0.7,0.2,1.1,0.5,1.5,1
		c0.3,0.4,0.5,1,0.5,1.7v8.1c0,0.9-0.5,1.7-1.4,2.6c-0.9,0.9-1.5,1.3-1.8,1.3c-0.2,0-0.7-0.2-1.2-0.8c-0.7-0.6-1.1-1.1-1.4-1.6
		s-0.6-1.2-0.7-2c0.2-0.1,0.2-0.2,0.3-0.5c0.1-0.2,0.1-0.4,0.1-0.7v-11.3h-4.4l-0.4,1.7c0.6,0.2,1,0.5,1.3,1c0.3,0.4,0.5,1,0.5,1.7
		v4.1h0.4c0.7,0,1.1,0.7,1.1,2c0,1.3-0.3,2.5-1,3.7l-1.3,2.3c-0.2,0.4-0.4,0.6-0.5,0.6c-0.1,0-0.2-0.2-0.2-0.5v-11.2
		c0-0.5-0.3-0.9-0.9-1.1c-0.2-0.1-0.3-0.2-0.3-0.6c0-0.3,0.1-0.8,0.2-1.3l1.1-4.9h6.1v13.9H272.4z M267.8,215.7
		c0.5-0.7,0.7-1.4,0.7-2c0-0.3-0.1-0.6-0.3-0.6h-0.4L267.8,215.7L267.8,215.7z"/>
	<path class="st1" d="M280.6,206.6c-0.2-0.5-0.3-0.8-0.6-1c-0.2-0.2-0.6-0.3-0.9-0.3l1.5-5.2h2.4c0.2,0,0.3,0.4,0.3,1.3
		c0.3-0.9,0.6-1.3,0.8-1.3h2.2c0,1.1-0.1,2-0.2,2.7c-0.2,0.7-0.4,1.4-0.8,1.9c0.1-0.7,0.2-1.2,0.2-1.5c0-0.3-0.1-0.5-0.3-0.4h-1.4
		c-0.3,0-0.7,0.5-1,1.5c0.2-1.1,0.1-1.5-0.2-1.5h-2l-0.2,0.7c0.3,0.2,0.7,0.6,0.9,1c0.2,0.4,0.3,0.9,0.1,1.4
		C281.2,206.2,280.9,206.6,280.6,206.6z M279.9,220.3v-11.1c0-0.9,0.4-1.7,1.3-2.6c0.9-0.9,1.5-1.3,1.7-1.3c0.2,0,0.7,0.2,1.2,0.8
		c1.2,1.2,1.8,2.2,1.8,3.1v8.5l-1.5,2.6v-10.4c0-0.3-0.3-0.8-1.1-1.5c-0.7-0.7-1.1-1.1-1.3-1.1s-0.3,0.1-0.5,0.2
		c-0.2,0.1-0.2,0.7-0.2,1.6v8.5L279.9,220.3z"/>
	<path class="st1" d="M282.2,198.8v-7.2l1.5-2.6v7.2L282.2,198.8z"/>
	<path class="st1" d="M288.9,207.6l-0.4-0.6c0-1.1,0.1-2,0.3-2.9l1-3.9h5.5c0,1.1-0.1,2-0.2,2.8l-0.4,1.9c-0.2,1.2-0.7,1.9-1.3,1.9
		s-1.5-0.6-2.5-1.6l1.3-1.7c0.5,0.5,0.9,0.7,1.3,0.7s0.7-0.2,0.8-0.7c0.1-0.4,0-0.7-0.2-0.7h-4.2l-0.5,2.1l0.7,1.1
		c0.4,0.7,1.1,1.3,1.9,1.6l2.1,1c0.5,0.2,0.9-0.1,1.3-0.9c0,1.3-0.2,2.3-0.6,2.8c-0.4,0.6-0.7,0.7-1.1,0.6L293,211l-1.5-0.7
		C290.5,209.7,289.6,208.8,288.9,207.6z M290.5,210.9v4.3c0,0.3,0.3,0.8,1.1,1.5c0.7,0.7,1.1,1.1,1.3,1.1s0.3-0.1,0.5-0.2
		c0.2-0.1,0.2-0.7,0.2-1.6v-4.1c0.3,0.1,0.7,0,0.9-0.2c0.2-0.2,0.5-0.6,0.6-1v5.4c0,0.9-0.4,1.7-1.3,2.6c-0.9,0.9-1.5,1.3-1.7,1.3
		s-0.7-0.2-1.2-0.8c-1.2-1.2-1.8-2.2-1.8-3.1v-3.7l0.9-1.5c0.2-0.3,0.3-0.5,0.5-0.5C290.4,210.2,290.5,210.4,290.5,210.9z"/>
	<path class="st1" d="M291.8,229.4c-0.2-0.4-0.4-0.9-0.4-1.3v-2.8c-0.3,0.2-0.6,0.2-0.8-0.1s-0.4-0.7-0.4-1.1c0-0.4,0.2-1.1,0.7-2
		c0.5-0.9,0.8-1.3,1.1-1.3c0.3,0,0.6,0.2,0.9,0.8v6.7c0.4-0.2,0.7-0.4,0.8-0.7c0.2-0.3,0.2-0.8,0.2-1.5c0-0.4-0.1-0.9-0.2-1.3
		c-0.2-0.4-0.2-1.1-0.2-1.9c0-0.5,0.2-1,0.4-1.4s0.7-0.8,1.1-1.1c-0.3,0.8-0.5,1.4-0.5,1.9c0,0.6,0.2,1.1,0.5,1.6
		c0.3,0.5,0.5,1.2,0.5,2.2c0,0.6-0.4,1.4-1.2,2.4c-0.8,1-1.4,1.5-1.7,1.5C292.3,230.1,292.1,229.9,291.8,229.4z M291.4,224.2v-0.6
		c-0.2,0.3-0.3,0.6-0.3,0.7C291.2,224.4,291.2,224.4,291.4,224.2z"/>
	<path class="st1" d="M299.6,217.7l-0.8,1.5c-0.2,0.3-0.3,0.5-0.5,0.5s-0.2-0.2-0.2-0.5c0-0.7-0.2-1.5-0.7-2.3
		c-0.5-0.8-0.7-1.6-0.7-2.5c0-0.4,0.2-0.8,0.4-1.1l1.1-1.3v-3.7c0-0.5-0.3-0.9-1.1-1.1c-0.2-0.1-0.3-0.2-0.3-0.6s0.1-0.8,0.2-1.3
		l1.2-5.4h2.3c0,1.1-0.1,2-0.2,2.7c-0.2,0.7-0.3,1.3-0.7,1.6c0.1-0.5,0.1-1,0.1-1.2c0-0.3-0.2-0.4-0.4-0.4h-1l-0.5,2.3
		c0.7,0.2,1.1,0.5,1.5,1c0.3,0.4,0.5,1,0.5,1.7v10H299.6z M298.2,213.4l-0.4,0.6l0.4,0.8V213.4z"/>
	<path class="st1" d="M303.7,207c-0.2-0.5-0.3-0.8-0.6-1.1c-0.2-0.3-0.7-0.5-1.2-0.5l1.5-5.2h5c0,1.1-0.1,2-0.2,2.7
		c-0.2,0.7-0.4,1.4-0.8,1.9c0.1-0.7,0.2-1.2,0.2-1.5c0-0.3-0.1-0.5-0.3-0.4h-4l-0.2,0.7c0.5,0.3,0.8,0.7,1.1,1.3
		c0.2,0.3,0.3,0.7,0.5,1.1c0.4-0.3,0.7-0.5,0.8-0.5c0.2,0,0.7,0.2,1.2,0.8c1.2,1.2,1.8,2.2,1.8,3.1v5c0,0.3-0.1,0.7-0.2,0.8
		c0,0.3,0.3,0.7,1.1,1.5c0.7,0.7,1.2,1.1,1.5,1.1s0.3-0.1,0.5-0.2s0.2-0.7,0.2-1.6v-7.3c0-0.5-0.3-0.9-1.1-1.1
		c-0.2-0.1-0.3-0.2-0.3-0.6c0-0.3,0.1-0.8,0.2-1.3l1.2-5.4h2.3c0,1.1-0.1,2-0.2,2.7c-0.2,0.7-0.3,1.3-0.7,1.6c0.1-0.5,0.1-1,0.1-1.2
		c0-0.3-0.2-0.4-0.4-0.4h-1l-0.5,2.3c0.7,0.2,1.1,0.5,1.5,1c0.3,0.4,0.5,1,0.5,1.7v8.1c0,0.9-0.5,1.7-1.4,2.6s-1.5,1.3-1.8,1.3
		c-0.2,0-0.7-0.2-1.2-0.8c-0.7-0.6-1.1-1.1-1.4-1.6c-0.3-0.5-0.6-1.2-0.7-2c0.2-0.1,0.2-0.2,0.3-0.5c0.1-0.2,0.1-0.4,0.1-0.7v-4.2
		c0-0.3-0.3-0.8-1.1-1.5s-1.1-1.1-1.3-1.1s-0.3,0.1-0.5,0.2c-0.2,0.1-0.2,0.7-0.2,1.6v3.3h0.4c0.4,0,0.7,0.1,0.9,0.3
		c0.2,0.2,0.2,0.5,0.2,1c0,0.9-0.3,1.9-1,3l-1.3,2.3c-0.2,0.4-0.4,0.6-0.5,0.6c-0.1,0-0.2-0.2-0.2-0.5v-9.9
		C302.6,208.5,303,207.7,303.7,207z M304.2,215.7c0.5-0.7,0.7-1.3,0.7-1.5c0-0.2-0.1-0.3-0.3-0.3h-0.4L304.2,215.7L304.2,215.7z"/>
	<path class="st1" d="M311.9,198.8c-0.2,0.1-0.4,0.1-0.7,0.1c-0.3,0-0.6-0.1-0.9-0.2c-1.1-0.5-1.6-1.1-1.6-1.8
		c0-0.3,0.2-1.1,0.7-2.3c0.3-0.7,0.6-1.1,1-1.4c0.3-0.2,0.7-0.2,1.1-0.1c0.4,0.2,0.7,0.5,0.8,0.8c0.1,0.3,0.1,0.7-0.2,1.2
		c-0.2,0.3-0.4,0.6-0.7,0.7c-0.2,0.1-0.6,0.1-1-0.1c0.1-0.3,0-0.6-0.2-0.7c-0.2-0.1-0.4,0-0.6,0.3c-0.1,0.3,0.3,0.7,1.2,1.1
		c0.5,0.2,0.9,0.3,1.2,0.2c0.3-0.1,0.7-0.2,0.9-0.6c0.2-0.3,0.4-0.7,0.4-1.1c0.1-0.4,0-0.9-0.2-1.5c-0.3-1.1-0.5-2.1-0.5-3.2
		c0-0.6,0.1-1.1,0.3-1.5c0.2-0.5,0.6-0.9,1.1-1.1c-0.3,0.7-0.5,1.4-0.5,2c0,0.3,0.2,0.9,0.4,1.7c0.2,0.8,0.4,1.6,0.4,2.5
		c0,0.6-0.1,1.2-0.3,1.8s-0.6,1.2-1.1,1.9C312.9,198.2,312.4,198.6,311.9,198.8z"/>
	<path class="st1" d="M316.5,202.7l-0.4,1.7c0.6,0.2,1,0.5,1.3,1c0.3,0.4,0.5,1,0.5,1.7v4.1h0.4c0.7,0,1.1,0.7,1.1,2s-0.3,2.5-1,3.7
		l-1.3,2.3c-0.2,0.4-0.4,0.6-0.5,0.6c-0.1,0-0.2-0.2-0.2-0.5V208c0-0.5-0.3-0.9-0.9-1.1c-0.2-0.1-0.3-0.2-0.3-0.6
		c0-0.3,0.1-0.8,0.2-1.3l1.1-4.9h2.3c0.3,0,0.6,0.6,0.6,1.7c0.4-1.1,0.8-1.7,1.2-1.7h2v17.6l-1.5,2.6v-17.6h-0.7
		c-0.5,0-1,0.7-1.5,2.1l0.1-0.6c0.1-1.1,0-1.5-0.3-1.5H316.5z M317.9,215.7c0.5-0.7,0.7-1.4,0.7-2c0-0.3-0.1-0.6-0.3-0.6h-0.4
		L317.9,215.7L317.9,215.7z"/>
	<path class="st1" d="M320.5,221.3c0.2,0.2,0.4,0.7,0.4,1.3s-0.5,1.4-1.5,2.1c-1,0.7-1.5,1.5-1.5,2.2c0,0.4,0.2,0.8,0.4,1.1
		c0.3,0.2,0.8,0,1.5-0.9c0.7-0.8,1.1-1.6,1.1-2.3l1.5-2.6v5.9l-1.5,2.6V227l-0.9,1.5c-0.6,1-1.1,1.5-1.5,1.5c-0.4,0-0.9-0.3-1.4-0.9
		c-0.5-0.6-0.7-1.3-0.7-2.2c0-1.5,0.6-2.4,1.6-2.7c1.1-0.3,1.6-1.4,1.6-3.3C319.9,221,320.2,221.1,320.5,221.3z"/>
	<path class="st1" d="M325.6,195c-0.2,0.9-0.1,1.3,0.6,1.3c0.9,0,1.4-0.4,1.6-1.1c0.2-0.7-0.1-1.1-0.8-1.1c-1.5,0-2.4,0.3-2.8,1
		c0.7-2.8,0.8-4.4,0.7-4.8c-0.2-0.3-0.7-0.5-1.5-0.5c0.4-1.7,0.8-2.6,1.2-2.6s0.8,0.2,1.2,0.8s0.2,2.1-0.3,4.6
		c0.4-0.7,0.9-1.1,1.5-1.1c0.8,0,1.5,0.3,1.7,1c0.2,0.2,0.2,0.7,0.2,1.1c0,0.1,0,0.1,0,0.2c0,0.5-0.1,1.1-0.3,1.8
		c-0.3,1.1-0.7,2-1.1,2.6s-0.8,0.9-1.3,0.9c-1.3,0-2-0.5-2-1.5C324.2,196.5,324.7,195.7,325.6,195z M325.4,208.5
		c0-0.5-0.3-0.9-1.1-1.1c-0.2-0.1-0.3-0.2-0.3-0.6c0-0.3,0.1-0.8,0.2-1.3l1.2-5.4h2.3c0,1.1-0.1,2-0.2,2.7c-0.2,0.7-0.3,1.3-0.7,1.6
		c0.1-0.5,0.1-1,0.1-1.2c0-0.3-0.2-0.4-0.4-0.4h-1l-0.5,2.3c0.7,0.2,1.1,0.5,1.5,1c0.3,0.4,0.5,1,0.5,1.7v3.6h0.3
		c0.4,0,0.7,0.2,0.9,0.4c0.2,0.3,0.2,0.7,0.2,1.3c0,1.1-0.3,2.2-1,3.5l-1.3,2.6c-0.2,0.4-0.4,0.7-0.5,0.7c-0.1,0-0.2-0.2-0.2-0.5
		v-10.9H325.4z M326.9,215.4c0.4-0.7,0.6-1.4,0.6-1.8c0-0.2-0.1-0.4-0.2-0.4h-0.3V215.4z"/>
	<path class="st1" d="M331.2,206.2c-1.2-0.6-1.8-1.1-1.8-1.9c0-0.3,0.2-1.1,0.7-2.4c0.3-0.7,0.7-1.2,1.1-1.5
		c0.4-0.2,0.8-0.3,1.2-0.1c0.5,0.2,0.7,0.5,0.9,0.8c0.1,0.3,0.1,0.8-0.2,1.3c-0.3,0.8-0.9,1.1-1.7,0.7c0.1-0.3,0-0.6-0.2-0.7
		c-0.2-0.1-0.5,0-0.6,0.3c-0.2,0.3,0.3,0.7,1.4,1.1c1.1,0.5,1.8,0.3,2.4-0.3c0.5-0.7,0.6-1.6,0.2-2.8c-0.3-1.1-0.6-2.3-0.6-3.4
		c0-0.6,0.2-1.1,0.4-1.6s0.7-1,1.2-1.2c-0.3,0.7-0.5,1.5-0.5,2c0,0.3,0.2,1,0.4,1.9c0.3,0.9,0.4,1.8,0.4,2.7c0,1.3-0.5,2.6-1.5,4
		C333.5,206.4,332.4,206.8,331.2,206.2z M331.5,208v7.7l1.5-3.1l1.5,3.1V208l1.5-2.6v12.4l-0.6,1c-0.4,0.7-0.7,1-0.7,1
		c-0.2,0-0.3-0.3-0.7-1.1l-1.5-3.2l-1.8,3.7c-0.2,0.3-0.3,0.6-0.5,0.6s-0.2-0.2-0.2-0.5V208L331.5,208L331.5,208z"/>
	<path class="st1" d="M338.9,207.6l-0.4-0.6c0-1.1,0.1-2,0.3-2.9l1-3.9h5.5c0,1.1-0.1,2-0.2,2.8l-0.4,1.9c-0.2,1.2-0.7,1.9-1.3,1.9
		c-0.7,0-1.5-0.6-2.5-1.6l1.3-1.7c0.5,0.5,0.9,0.7,1.3,0.7s0.7-0.2,0.8-0.7c0.1-0.4,0-0.7-0.2-0.7h-4.2l-0.5,2.1l0.7,1.1
		c0.4,0.7,1.1,1.3,1.9,1.6l2.1,1c0.5,0.2,0.9-0.1,1.3-0.9c0,1.3-0.2,2.3-0.6,2.8c-0.4,0.6-0.7,0.7-1.1,0.6l-0.5-0.2l-1.5-0.7
		C340.6,209.7,339.7,208.8,338.9,207.6z M340.6,210.9v4.3c0,0.3,0.3,0.8,1.1,1.5c0.7,0.7,1.1,1.1,1.3,1.1s0.3-0.1,0.5-0.2
		c0.2-0.1,0.2-0.7,0.2-1.6v-4.1c0.3,0.1,0.7,0,0.9-0.2c0.2-0.2,0.5-0.6,0.6-1v5.4c0,0.9-0.4,1.7-1.3,2.6c-0.9,0.9-1.5,1.3-1.7,1.3
		c-0.2,0-0.7-0.2-1.2-0.8c-1.2-1.2-1.8-2.2-1.8-3.1v-3.7l0.9-1.5c0.2-0.3,0.3-0.5,0.5-0.5C340.5,210.2,340.6,210.4,340.6,210.9z"/>
	<path class="st1" d="M342.1,191.1c0.3,0,0.7,0.2,1.1,0.5c0.3,0.3,0.6,0.8,0.8,1.5c0.2,0.7,0.2,1.3,0.2,2s-0.1,1.3-0.2,2
		s-0.4,1.1-0.7,1.5c-0.3,0.3-0.7,0.5-1.1,0.5c-0.3,0-0.7-0.2-1.1-0.5c-0.3-0.3-0.6-0.8-0.7-1.5c-0.2-0.7-0.2-1.2-0.2-2
		c0-0.7,0.1-1.3,0.2-2c0.2-0.7,0.4-1.1,0.8-1.5C341.4,191.3,341.7,191.1,342.1,191.1z M341.6,193c-0.2-0.2-0.5-0.1-0.7,0.2
		c-0.2,0.2-0.2,0.7-0.1,1.1c0.1,0.4,0.3,0.9,0.7,1.5c0.4,0.6,0.7,1,1,1.1c0.2,0.2,0.5,0.1,0.7-0.2c0.2-0.2,0.2-0.7,0.1-1.1
		c-0.1-0.4-0.3-0.9-0.7-1.5C342.2,193.5,341.9,193.1,341.6,193z"/>
	<path class="st1" d="M348.1,208.5c0-0.5-0.3-0.9-1.1-1.1c-0.2-0.1-0.3-0.2-0.3-0.6c0-0.3,0.1-0.8,0.2-1.3l1.2-5.4h2.3
		c0,1.1-0.1,2-0.2,2.7c-0.2,0.7-0.3,1.3-0.7,1.6c0.1-0.5,0.1-1,0.1-1.2c0-0.3-0.2-0.4-0.4-0.4h-1l-0.5,2.3c0.7,0.2,1.1,0.5,1.5,1
		c0.3,0.4,0.5,1,0.5,1.7v3.6h0.3c0.4,0,0.7,0.2,0.9,0.4c0.2,0.3,0.2,0.7,0.2,1.3c0,1.1-0.3,2.2-1,3.5l-1.3,2.6
		c-0.2,0.4-0.4,0.7-0.5,0.7c-0.2,0-0.2-0.2-0.2-0.5v-10.9H348.1z M349.7,215.4c0.4-0.7,0.6-1.4,0.6-1.8c0-0.2-0.1-0.4-0.2-0.4h-0.3
		V215.4z"/>
	<path class="st1" d="M352.5,207.6l-0.4-0.6c0-1.1,0.1-2,0.3-2.9l1-3.9h5.5c0,1.1-0.1,2-0.2,2.8l-0.4,1.9c-0.2,1.2-0.7,1.9-1.3,1.9
		s-1.5-0.6-2.5-1.6l1.3-1.7c0.5,0.5,0.9,0.7,1.3,0.7s0.7-0.2,0.8-0.7c0.1-0.4,0-0.7-0.2-0.7h-4.2l-0.5,2.1l0.7,1.1
		c0.4,0.7,1.1,1.3,1.9,1.6l2.1,1c0.5,0.2,0.9-0.1,1.3-0.9c0,1.3-0.2,2.3-0.6,2.8c-0.4,0.6-0.7,0.7-1.1,0.6l-0.5-0.2l-1.5-0.7
		C354.2,209.7,353.3,208.8,352.5,207.6z M352.7,212.2l0.9-1.5c0.2-0.3,0.3-0.5,0.5-0.5s0.2,0.2,0.2,0.7v4.8l1.5-3.1l1.5,3.1v-4
		c0.3,0.1,0.7,0,0.9-0.2c0.2-0.2,0.5-0.6,0.6-1v7.3l-0.6,1c-0.4,0.7-0.7,1-0.7,1c-0.1,0-0.3-0.3-0.7-1.1l-1.5-3.2l-1.8,3.7
		c-0.2,0.3-0.3,0.6-0.5,0.6c-0.2,0-0.2-0.2-0.2-0.5L352.7,212.2L352.7,212.2z"/>
	<path class="st1" d="M359.1,196.3l-1.1,2.6l-1-0.4c-1-0.4-1.8-0.7-2.5-0.7c-0.7,0-1.4,0.2-1.9,0.6l0.2-1.5c0.2-1.5,0.6-2.6,1-3.4
		c0.3-0.8,0.7-1.3,1.2-1.5c0.5-0.2,0.9-0.2,1.3-0.1c0.4,0.1,1,0.4,1.6,1c0.7,0.6,1,1.2,1.1,2c0.2-0.6,0.2-1,0.2-1.2
		c0-0.3-0.1-0.7-0.3-1.1l0.7-1.8l0.2,0.6c0.1,0.3,0.2,0.9,0.2,1.5C360.3,193.4,359.9,194.6,359.1,196.3z M355.5,195.4
		c0.6-0.1,1.6,0.3,3.2,1.2l0.1-0.3l-1.6-1.5c-0.6-0.5-1.1-0.7-1.7-0.7s-1.1,0.8-1.5,2.3C354.3,195.9,354.8,195.5,355.5,195.4z"/>
	<path class="st1" d="M367.9,215.8c0,0.9-0.5,1.7-1.4,2.6c-0.9,0.9-1.5,1.3-1.8,1.3c-0.2,0-0.7-0.2-1.2-0.8
		c-0.7-0.6-1.1-1.1-1.4-1.6c-0.3-0.5-0.6-1.2-0.7-2c0.2-0.1,0.2-0.2,0.3-0.5c0.1-0.2,0.1-0.4,0.1-0.7v-5.6c0-0.5-0.3-0.9-1.1-1.1
		c-0.2-0.1-0.3-0.2-0.3-0.6s0.1-0.8,0.2-1.3l1.2-5.4h2.3c0,1.1-0.1,2-0.2,2.7c-0.2,0.7-0.3,1.3-0.7,1.6c0.1-0.5,0.1-1,0.1-1.2
		c0-0.3-0.2-0.4-0.4-0.4h-1l-0.5,2.3c0.7,0.2,1.1,0.5,1.5,1c0.3,0.4,0.5,1,0.5,1.7v6.7c0,0.3-0.1,0.7-0.2,0.8c0,0.3,0.3,0.7,1.1,1.5
		c0.7,0.7,1.2,1.1,1.5,1.1s0.3-0.1,0.5-0.2s0.2-0.7,0.2-1.6v-7.3c0-0.5-0.3-0.9-1.1-1.1c-0.2-0.1-0.3-0.2-0.3-0.6
		c0-0.3,0.1-0.8,0.2-1.3l1.2-5.4h2.3c0,1.1-0.1,2-0.2,2.7c-0.2,0.7-0.3,1.3-0.7,1.6c0.1-0.5,0.1-1,0.1-1.2c0-0.3-0.2-0.4-0.4-0.4h-1
		l-0.5,2.3c0.7,0.2,1.1,0.5,1.5,1c0.3,0.4,0.5,1,0.5,1.7v7.7H367.9z"/>
	<path class="st1" d="M409.2,214.8l3.7-15.2h3.6v0.8c-0.6,0-1,0.2-1.1,0.4c-0.2,0.2-0.3,0.6-0.4,1.1c0,0.4-0.1,1.3-0.1,2.4v12.3
		c0,0.7,0.1,1.1,0.2,1.4c0.1,0.3,0.2,0.6,0.5,0.7c0.2,0.2,0.6,0.2,1.1,0.2v0.8h-5.4v-0.8c0.6,0,0.9-0.1,1.1-0.3
		c0.2-0.2,0.4-0.5,0.4-0.9c0.1-0.3,0.1-1,0.1-1.8v-13.8l-4.2,17.6h-0.5l-4.1-17v11.6c0,1.3,0.2,2.4,0.4,3.1c0.3,0.7,0.7,1.2,1.5,1.5
		v0.8h-4.2v-0.8c0.6-0.1,1.1-0.5,1.4-1.2c0.3-0.7,0.5-1.6,0.5-2.9v-13.2c-0.2-0.4-0.5-0.7-0.8-1c-0.3-0.2-0.7-0.3-1.1-0.2v-0.8h3.8
		L409.2,214.8z M402.6,218.9h1.7c-0.2-0.2-0.3-0.4-0.5-0.7c-0.2-0.3-0.2-0.7-0.2-1.1c-0.1,0.4-0.2,0.7-0.3,1.1
		C403.1,218.4,402.9,218.7,402.6,218.9z M403.3,200.4h-0.3c0.3,0.2,0.7,0.6,0.8,1s0.4,1.1,0.6,1.9l3.8,15.7c0.1-0.4,0.2-0.7,0.2-1
		c0-0.2-0.1-0.7-0.2-1.1l-3.3-13.8c-0.2-0.9-0.4-1.5-0.7-2C404.1,200.6,403.7,200.4,403.3,200.4z M413.5,216.4v-13.8
		c0-1.1,0.1-1.9,0.2-2.3c-0.2,0-0.4,0.2-0.5,0.3c-0.1,0.2-0.2,0.4-0.2,0.7s0,0.8,0,1.5v13.8c0,0.7,0,1.1-0.1,1.4
		c-0.1,0.2-0.2,0.5-0.5,0.7h0.3c0.4,0,0.7-0.2,0.7-0.6C413.4,218,413.5,217.3,413.5,216.4z"/>
	<path class="st1" d="M417.5,213.6c0-1.2,0.2-2.4,0.5-3.3c0.3-1,0.8-1.8,1.4-2.4s1.2-0.9,2-0.9c0.7,0,1.3,0.2,1.9,0.8
		c0.6,0.6,1,1.3,1.3,2.4c0.3,1,0.5,2.1,0.5,3.3c0,0.9-0.1,1.8-0.3,2.6c-0.2,0.8-0.5,1.5-0.8,2.1c-0.3,0.6-0.7,1.1-1.2,1.4
		c-0.5,0.3-0.9,0.5-1.5,0.5c-0.7,0-1.3-0.2-1.9-0.8c-0.6-0.6-1.1-1.3-1.4-2.3C417.7,216,417.5,214.9,417.5,213.6z M420.4,219.5
		c-0.7-0.7-1.2-1.6-1.6-2.7c-0.3-1.1-0.6-2.1-0.6-3.3c0-0.9,0.1-1.7,0.2-2.4c0.2-0.7,0.4-1.3,0.7-1.8c0.2-0.5,0.7-1.1,1.1-1.5
		c-0.6,0.3-1.1,0.8-1.4,1.5c-0.4,0.7-0.7,1.3-0.8,2.1c-0.2,0.8-0.2,1.6-0.2,2.5c0,0.7,0.1,1.3,0.2,1.9c0.1,0.7,0.3,1.2,0.5,1.7
		c0.2,0.5,0.5,1,0.8,1.3C419.6,219,420,219.3,420.4,219.5z M419.5,212.8c0,2,0.2,3.6,0.5,4.8c0.3,1.1,0.8,1.7,1.3,1.7
		c0.2,0,0.6-0.2,0.7-0.6c0.2-0.4,0.4-1,0.6-1.8c0.2-0.7,0.2-1.7,0.2-2.8c0-2-0.2-3.5-0.5-4.6c-0.3-1.1-0.7-1.6-1.3-1.6
		c-0.5,0-0.9,0.4-1.2,1.2C419.7,209.9,419.5,211.1,419.5,212.8z M422.5,218.8c0.4-0.4,0.7-1,1-1.9c0.2-0.9,0.3-1.9,0.3-3.1
		c0-3-0.6-5-1.6-5.9c0.4,0.7,0.7,1.5,0.8,2.4s0.2,2.3,0.2,3.9c0,1.1-0.1,1.9-0.2,2.6C423,217.6,422.7,218.2,422.5,218.8z"/>
	<path class="st1" d="M430.6,200.9l2.5-1.5h0.3v17.7c0,0.5,0.1,0.8,0.2,1.1c0.2,0.2,0.4,0.2,0.8,0.2v0.7l-2.9,0.9v-1.6
		c-0.8,1.1-1.6,1.6-2.4,1.6c-0.5,0-0.9-0.2-1.3-0.5c-0.4-0.3-0.7-0.8-1.1-1.4c-0.3-0.6-0.5-1.3-0.7-2.1c-0.2-0.8-0.2-1.6-0.2-2.4
		c0-1.2,0.2-2.4,0.5-3.4c0.3-1.1,0.8-1.8,1.4-2.4s1.2-0.8,2-0.8c0.5,0,1.1,0.2,1.7,0.7v-3.5c0-0.8-0.1-1.4-0.2-1.7
		c-0.1-0.3-0.4-0.7-0.8-1v-0.7H430.6z M429.1,207.7c-0.5,0.2-0.8,0.4-1.1,0.8c-0.5,0.5-0.9,1.2-1.1,2.2c-0.2,1-0.4,2-0.4,3.1
		c0,1.1,0.2,2,0.4,2.9c0.2,0.9,0.6,1.6,1.1,2.1c0.5,0.5,1,0.8,1.5,0.8c0.4,0,0.7-0.1,1.1-0.3c-0.2,0-0.4,0.1-0.5,0.1
		c-0.3,0-0.7-0.2-1.1-0.4c-0.3-0.2-0.7-0.7-1-1.1c-0.3-0.5-0.5-1.1-0.7-1.8c-0.2-0.7-0.2-1.5-0.2-2.3
		C426.9,211.2,427.6,209.2,429.1,207.7z M431.7,217.4V209c-0.2-0.4-0.4-0.7-0.7-0.9c-0.2-0.2-0.5-0.3-0.8-0.3
		c-0.4,0-0.7,0.2-1.1,0.7c-0.3,0.4-0.6,1.1-0.8,1.9c-0.2,0.8-0.3,1.9-0.3,3.1c0,1.1,0.1,2,0.2,2.7c0.2,0.7,0.4,1.4,0.7,1.7
		c0.3,0.4,0.7,0.6,1.1,0.6C430.7,218.5,431.2,218,431.7,217.4z M431.3,201.2h-0.2c0.4,0.3,0.7,0.7,0.7,1.1c0.1,0.3,0.2,0.8,0.2,1.5
		v15.7c0.2-0.2,0.3-0.3,0.4-0.5c0.1-0.2,0.2-0.5,0.2-0.8v-14.4c0-0.8-0.1-1.5-0.2-1.9C432.1,201.4,431.7,201.2,431.3,201.2z"/>
	<path class="st1" d="M441.8,216.2l0.3,0.4c-0.2,0.8-0.6,1.5-0.9,2c-0.3,0.5-0.7,0.9-1.1,1.1c-0.4,0.2-0.8,0.4-1.3,0.4
		c-0.6,0-1.1-0.2-1.7-0.7c-0.5-0.5-0.9-1.2-1.2-2.2c-0.3-1-0.5-2-0.5-3.3c0-1,0.1-1.9,0.2-2.7c0.2-0.8,0.4-1.5,0.7-2.2
		c0.3-0.7,0.7-1.1,1.1-1.5s0.9-0.6,1.4-0.6c0.5,0,1,0.2,1.4,0.6c0.5,0.3,0.8,0.8,1.1,1.5c0.2,0.5,0.3,0.9,0.4,1.4
		c0.1,0.5,0.2,1.1,0.2,1.7h-5c0,1,0.1,1.8,0.3,2.5c0.2,0.7,0.4,1.2,0.7,1.6s0.6,0.7,0.9,0.9c0.3,0.2,0.7,0.2,0.9,0.2
		C440.5,217.5,441.2,217.1,441.8,216.2z M437.2,208.4c-1.1,1.4-1.5,3.3-1.5,5.5c0,1.6,0.3,3,0.9,4.1c0.7,1.1,1.3,1.5,2.1,1.5
		c0.5,0,1-0.2,1.4-0.5c0.5-0.3,0.9-0.8,1.2-1.5c-0.3,0.4-0.7,0.7-1.1,0.9c-0.3,0.2-0.7,0.3-1.2,0.3c-0.8,0-1.5-0.5-2-1.5
		c-0.6-1-0.8-2.3-0.8-3.8c0-1,0.1-1.9,0.2-2.7C436.6,210.1,436.9,209.3,437.2,208.4z M437.1,211.2h2.9v-0.5c0-0.6-0.1-1.1-0.2-1.5
		c-0.1-0.4-0.2-0.7-0.5-1c-0.2-0.2-0.4-0.3-0.7-0.3c-0.4,0-0.8,0.3-1.1,1C437.4,209.6,437.2,210.3,437.1,211.2z M440.3,211.2h0.6
		c0-1.1-0.2-1.9-0.4-2.4c-0.2-0.5-0.7-0.8-1.2-1.1c0.3,0.2,0.6,0.7,0.7,1.1c0.2,0.4,0.2,1.1,0.2,2L440.3,211.2L440.3,211.2z"/>
	<path class="st1" d="M445.9,207v2.2c0.4-0.8,0.7-1.4,1-1.7c0.2-0.3,0.5-0.5,0.8-0.5c0.2,0,0.5,0.2,0.7,0.5c0.2,0.3,0.3,0.7,0.3,1.3
		c0,0.6-0.1,1-0.2,1.3c-0.2,0.3-0.4,0.6-0.7,0.6c-0.1,0-0.2,0-0.4-0.1s-0.2-0.2-0.3-0.3c-0.1-0.1-0.1-0.2-0.2-0.2
		c-0.1-0.1-0.1-0.2-0.2-0.2c-0.1-0.1-0.1-0.1-0.2-0.1c-0.1,0-0.2,0.1-0.3,0.2c-0.1,0.2-0.2,0.3-0.3,0.6v6.8c0,0.5,0,0.8,0.1,1.1
		c0.1,0.2,0.2,0.3,0.4,0.4s0.5,0.1,0.9,0.1v0.8h-4.5v-0.8h0.2c0.7,0,1-0.4,1-1.3v-6.4c0-1.1-0.4-1.9-1.2-2.3v-0.5l2.7-1.5H445.9
		L445.9,207z M444.3,211.2v6.5c0,0.3,0,0.6-0.1,0.7c-0.1,0.2-0.2,0.3-0.2,0.5c0.3-0.1,0.6-0.2,0.7-0.4c0.2-0.2,0.2-0.7,0.2-1.2v-6
		c0-0.8-0.1-1.4-0.2-1.8c-0.2-0.4-0.4-0.6-0.8-0.6c0,0-0.1,0-0.2,0c-0.1,0-0.2,0-0.2,0C444,209.3,444.3,210.1,444.3,211.2z
		 M446.5,209.2c0.2,0,0.3,0.1,0.5,0.2c0.3,0.5,0.7,0.7,0.9,0.7c0.3,0,0.5-0.3,0.7-1c-0.2,0.2-0.2,0.2-0.3,0.2
		c-0.2,0-0.3-0.1-0.5-0.2c-0.2-0.3-0.4-0.4-0.5-0.4C447,208.7,446.7,208.8,446.5,209.2z"/>
	<path class="st1" d="M452.2,207v1.9c0.5-0.7,0.9-1.1,1.3-1.4c0.4-0.3,0.9-0.5,1.4-0.5c1.5,0,2.4,1.3,2.4,4v6.5c0,0.7,0.1,1,0.2,1.1
		c0.2,0.2,0.4,0.2,0.8,0.2v0.8h-4v-0.8c0.3,0,0.7-0.1,0.8-0.3c0.2-0.2,0.2-0.6,0.2-1.2v-6.8c0-0.5-0.1-0.9-0.2-1.3
		c-0.1-0.3-0.2-0.6-0.4-0.8c-0.2-0.2-0.4-0.2-0.7-0.2c-0.3,0-0.7,0.2-0.9,0.4c-0.3,0.2-0.7,0.7-1,1.3v7.5c0,0.4,0.1,0.7,0.2,1
		c0.1,0.2,0.2,0.4,0.3,0.4c0.2,0.1,0.3,0.1,0.6,0.1v0.8h-4v-0.8c0.3,0,0.6-0.1,0.8-0.2c0.2-0.2,0.2-0.5,0.2-1.1v-6.3
		c0-0.7-0.1-1.1-0.2-1.5c-0.2-0.4-0.4-0.7-0.8-0.9v-0.5l2.6-1.4L452.2,207L452.2,207z M450.5,210.8v6.5c0,0.4,0,0.7-0.1,0.9
		c0,0.2-0.1,0.4-0.2,0.7c0.6-0.1,0.8-0.6,0.8-1.5v-6.8c0-0.5-0.1-0.9-0.3-1.2c-0.2-0.3-0.4-0.5-0.7-0.5c0,0-0.1,0-0.2,0
		c-0.1,0-0.1,0-0.2,0C450.3,209.3,450.5,209.9,450.5,210.8z M455.6,210.4v7c0,0.3,0,0.5,0,0.7c0,0.2,0,0.2-0.1,0.4
		c0,0.2-0.1,0.3-0.2,0.5h0.2c0.3,0,0.5-0.2,0.6-0.6c0.1-0.3,0.2-0.9,0.2-1.6v-6.3c0-0.8-0.1-1.5-0.3-1.9c-0.2-0.4-0.6-0.7-1.1-0.7
		c0.3,0.2,0.5,0.5,0.7,0.9C455.5,209.2,455.6,209.7,455.6,210.4z"/>
	<path class="st1" d="M467.2,210.6v6c0,0.6,0.1,1,0.2,1.3c0.1,0.3,0.2,0.5,0.4,0.7c0.2,0.2,0.4,0.2,0.7,0.2c0.3,0,0.6,0.1,0.8,0.1
		v0.8h-6v-0.8c0.5,0,0.8-0.1,1-0.2c0.2-0.1,0.4-0.2,0.6-0.4c0.2-0.2,0.2-0.4,0.2-0.7c0.1-0.3,0.1-0.7,0.1-1.2v-12.5
		c0-1.1,0-1.8-0.1-2.2c-0.1-0.4-0.2-0.7-0.5-1c-0.2-0.2-0.7-0.3-1.3-0.3v-0.8h5.7c0.2,0,0.9,0.1,1.8,0.2c0.3,0.1,0.7,0.2,1,0.5
		c0.3,0.2,0.7,0.7,1,1.1c0.3,0.5,0.6,1,0.7,1.6s0.2,1.3,0.2,2c0,0.8-0.1,1.5-0.3,2.2s-0.5,1.2-0.9,1.7s-0.9,0.9-1.5,1.1
		c-0.6,0.2-1.3,0.4-2.1,0.4h-1.7V210.6z M465.4,203.7v13.3c0,0.9-0.2,1.5-0.6,1.8h0.2c0.7,0,0.9-0.5,0.9-1.5v-13c0-1.1,0-2,0-2.3
		c0-0.3-0.1-0.7-0.1-0.9c-0.1-0.2-0.2-0.4-0.3-0.6c-0.2-0.1-0.4-0.2-0.7-0.2c0.2,0.2,0.4,0.4,0.5,0.7c0.1,0.2,0.2,0.6,0.2,1
		C465.4,202.3,465.4,203,465.4,203.7z M467.2,209.8h1.1c0.7,0,1.3-0.2,1.7-0.4c0.5-0.3,0.8-0.8,1.1-1.5s0.4-1.6,0.4-2.8
		c0-1.7-0.3-3-1.1-3.9c-0.2-0.3-0.6-0.6-0.8-0.7c-0.2-0.1-0.7-0.2-1.1-0.2c-0.5,0-0.8,0.1-1,0.3c-0.2,0.2-0.3,0.6-0.4,1.1
		c-0.1,0.5-0.1,1.1-0.1,2L467.2,209.8L467.2,209.8z M470.4,209.7c0.7-0.2,1.1-0.7,1.5-1.4c0.3-0.7,0.5-1.8,0.5-3.1
		c0-1.4-0.2-2.4-0.5-3.2c-0.3-0.7-0.8-1.1-1.5-1.4c0.3,0.2,0.6,0.7,0.8,1.1s0.4,1,0.5,1.5c0.1,0.6,0.2,1.2,0.2,2
		C471.9,207.5,471.4,208.9,470.4,209.7z"/>
	<path class="st1" d="M484,218.9v0.8h-4.1v-0.8c0.2,0,0.4-0.1,0.5-0.1c0.1,0,0.2-0.1,0.3-0.2c0.1-0.1,0.2-0.2,0.2-0.5
		c0.1-0.2,0.1-0.5,0.1-0.8v-6.7c0-0.9-0.1-1.5-0.3-2c-0.2-0.4-0.5-0.7-0.8-0.7c-0.6,0-1.2,0.6-2,1.8v7.7c0,0.6,0.1,0.9,0.2,1.1
		c0.2,0.2,0.5,0.3,0.9,0.3v0.8H475v-0.8c0.4,0,0.7-0.1,0.8-0.2s0.2-0.5,0.2-1v-13.9c0-1.3-0.4-2.1-1.1-2.4v-0.6l2.8-1.5h0.3v9.6
		c0.4-0.6,0.8-1.1,1.3-1.4c0.5-0.3,0.9-0.5,1.4-0.5c0.5,0,0.9,0.2,1.2,0.4c0.3,0.2,0.7,0.7,0.8,1.3c0.2,0.6,0.3,1.3,0.3,2.2v5.9
		c0,0.6,0,1,0,1.2c0,0.2,0.1,0.4,0.2,0.7C483.4,218.9,483.6,219,484,218.9L484,218.9L484,218.9z M476.3,203.8v13.5
		c0,0.4,0,0.7-0.1,0.9c0,0.2-0.1,0.4-0.2,0.6h0.2c0.2,0,0.2-0.1,0.4-0.3c0.2-0.2,0.2-0.6,0.2-1.1v-13.7c0-0.7-0.1-1.1-0.2-1.5
		c-0.1-0.3-0.2-0.6-0.4-0.7c-0.2-0.2-0.4-0.2-0.6-0.2c-0.1,0-0.2,0-0.5,0.1c0.4,0.2,0.7,0.6,0.8,1
		C476.2,202.7,476.3,203.1,476.3,203.8z M481.3,210.1v7.4c0,0.3,0,0.7-0.1,0.8c-0.1,0.2-0.2,0.4-0.2,0.6c0.3,0,0.6-0.2,0.7-0.4
		s0.2-0.7,0.2-1.4v-6c0-0.7,0-1.3-0.1-1.7c-0.1-0.4-0.2-0.7-0.4-1s-0.6-0.4-1-0.5C481,208.2,481.3,209,481.3,210.1z"/>
	<path class="st1" d="M484.7,213.6c0-1.2,0.2-2.4,0.5-3.3s0.8-1.8,1.4-2.4s1.2-0.9,2-0.9c0.7,0,1.3,0.2,1.9,0.8s1,1.3,1.3,2.4
		c0.3,1,0.5,2.1,0.5,3.3c0,0.9-0.1,1.8-0.3,2.6c-0.2,0.8-0.5,1.5-0.8,2.1c-0.3,0.6-0.7,1.1-1.2,1.4s-0.9,0.5-1.5,0.5
		c-0.7,0-1.3-0.2-1.9-0.8c-0.6-0.6-1.1-1.3-1.4-2.3C484.9,216,484.7,214.9,484.7,213.6z M487.7,219.5c-0.7-0.7-1.2-1.6-1.6-2.7
		c-0.3-1.1-0.6-2.1-0.6-3.3c0-0.9,0.1-1.7,0.2-2.4c0.2-0.7,0.4-1.3,0.7-1.8c0.2-0.5,0.7-1.1,1.1-1.5c-0.6,0.3-1.1,0.8-1.4,1.5
		c-0.4,0.7-0.7,1.3-0.8,2.1c-0.2,0.8-0.2,1.6-0.2,2.5c0,0.7,0.1,1.3,0.2,1.9c0.1,0.7,0.3,1.2,0.5,1.7c0.2,0.5,0.5,1,0.8,1.3
		C486.9,219,487.3,219.3,487.7,219.5z M486.9,212.8c0,2,0.2,3.6,0.5,4.8c0.3,1.1,0.8,1.7,1.3,1.7c0.2,0,0.6-0.2,0.7-0.6
		c0.2-0.4,0.4-1,0.6-1.8c0.2-0.7,0.2-1.7,0.2-2.8c0-2-0.2-3.5-0.5-4.6c-0.3-1.1-0.7-1.6-1.3-1.6c-0.5,0-0.9,0.4-1.2,1.2
		C486.9,209.9,486.9,211.1,486.9,212.8z M489.7,218.8c0.4-0.4,0.7-1,1-1.9c0.2-0.9,0.3-1.9,0.3-3.1c0-3-0.6-5-1.6-5.9
		c0.4,0.7,0.7,1.5,0.8,2.4s0.2,2.3,0.2,3.9c0,1.1-0.1,1.9-0.2,2.6C490.2,217.6,490,218.2,489.7,218.8z"/>
	<path class="st1" d="M496.1,207v1.9c0.5-0.7,0.9-1.1,1.3-1.4c0.4-0.3,0.9-0.5,1.4-0.5c1.5,0,2.4,1.3,2.4,4v6.5c0,0.7,0.1,1,0.2,1.1
		c0.2,0.2,0.4,0.2,0.8,0.2v0.8h-4v-0.8c0.3,0,0.7-0.1,0.8-0.3c0.2-0.2,0.2-0.6,0.2-1.2v-6.8c0-0.5-0.1-0.9-0.2-1.3
		c-0.1-0.3-0.2-0.6-0.4-0.8c-0.2-0.2-0.4-0.2-0.7-0.2c-0.3,0-0.7,0.2-0.9,0.4c-0.3,0.2-0.7,0.7-1,1.3v7.5c0,0.4,0.1,0.7,0.2,1
		c0.1,0.2,0.2,0.4,0.3,0.4c0.2,0.1,0.3,0.1,0.6,0.1v0.8h-4v-0.8c0.3,0,0.6-0.1,0.8-0.2c0.2-0.2,0.2-0.5,0.2-1.1v-6.3
		c0-0.7-0.1-1.1-0.2-1.5c-0.2-0.4-0.4-0.7-0.8-0.9v-0.5l2.6-1.4L496.1,207L496.1,207z M494.5,210.8v6.5c0,0.4,0,0.7-0.1,0.9
		c0,0.2-0.1,0.4-0.2,0.7c0.6-0.1,0.8-0.6,0.8-1.5v-6.8c0-0.5-0.1-0.9-0.3-1.2c-0.2-0.3-0.4-0.5-0.7-0.5c0,0-0.1,0-0.2,0
		c-0.1,0-0.1,0-0.2,0C494.3,209.3,494.5,209.9,494.5,210.8z M499.5,210.4v7c0,0.3,0,0.5,0,0.7c0,0.2,0,0.2-0.1,0.4
		c0,0.2-0.1,0.3-0.2,0.5h0.2c0.3,0,0.5-0.2,0.6-0.6c0.1-0.3,0.2-0.9,0.2-1.6v-6.3c0-0.8-0.1-1.5-0.3-1.9c-0.2-0.4-0.6-0.7-1.1-0.7
		c0.3,0.2,0.5,0.5,0.7,0.9S499.5,209.7,499.5,210.4z"/>
	<path class="st1" d="M509.4,216.2l0.3,0.4c-0.2,0.8-0.6,1.5-0.9,2c-0.3,0.5-0.7,0.9-1.1,1.1c-0.4,0.2-0.8,0.4-1.3,0.4
		c-0.6,0-1.1-0.2-1.7-0.7c-0.5-0.5-0.9-1.2-1.2-2.2c-0.3-1-0.5-2-0.5-3.3c0-1,0.1-1.9,0.2-2.7c0.2-0.8,0.4-1.5,0.7-2.2
		s0.7-1.1,1.1-1.5s0.9-0.6,1.4-0.6c0.5,0,1,0.2,1.4,0.6c0.5,0.3,0.8,0.8,1.1,1.5c0.2,0.5,0.3,0.9,0.4,1.4c0.1,0.5,0.2,1.1,0.2,1.7
		h-5c0,1,0.1,1.8,0.3,2.5c0.2,0.7,0.4,1.2,0.7,1.6s0.6,0.7,0.9,0.9c0.3,0.2,0.7,0.2,0.9,0.2C508.2,217.5,508.8,217.1,509.4,216.2z
		 M504.8,208.4c-1.1,1.4-1.5,3.3-1.5,5.5c0,1.6,0.3,3,0.9,4.1c0.7,1.1,1.3,1.5,2.1,1.5c0.5,0,1-0.2,1.4-0.5c0.5-0.3,0.9-0.8,1.2-1.5
		c-0.3,0.4-0.7,0.7-1.1,0.9c-0.3,0.2-0.7,0.3-1.2,0.3c-0.8,0-1.5-0.5-2-1.5c-0.6-1-0.8-2.3-0.8-3.8c0-1,0.1-1.9,0.2-2.7
		C504.3,210.1,504.5,209.3,504.8,208.4z M504.8,211.2h2.9v-0.5c0-0.6-0.1-1.1-0.2-1.5c-0.1-0.4-0.2-0.7-0.5-1
		c-0.2-0.2-0.4-0.3-0.7-0.3c-0.4,0-0.8,0.3-1.1,1C504.9,209.6,504.8,210.3,504.8,211.2z M507.9,211.2h0.6c0-1.1-0.2-1.9-0.4-2.4
		c-0.2-0.5-0.7-0.8-1.2-1.1c0.3,0.2,0.6,0.7,0.7,1.1s0.2,1.1,0.2,2L507.9,211.2L507.9,211.2z"/>
	<path class="st1" d="M515.4,212.4h0.6c0.3,1.5,0.7,2.8,1.1,3.7c0.4,1.1,0.9,1.8,1.4,2.3s1.1,0.7,1.6,0.7c0.7,0,1.3-0.4,1.8-1.1
		c0.5-0.7,0.7-1.7,0.7-2.8c0-1.1-0.2-2-0.5-2.5c-0.3-0.6-0.7-1.1-1.1-1.3c-0.5-0.2-1.1-0.5-1.8-0.7c-0.7-0.2-1.3-0.4-1.5-0.6
		c-0.5-0.2-0.9-0.7-1.2-1.1c-0.3-0.5-0.6-1.1-0.7-1.8c-0.2-0.7-0.2-1.5-0.2-2.3c0-0.7,0.1-1.5,0.2-2.2c0.2-0.7,0.4-1.3,0.7-1.9
		s0.7-1,1.1-1.3c0.4-0.3,0.9-0.5,1.4-0.5c0.3,0,0.8,0.1,1.3,0.2s0.9,0.2,1.1,0.2c0.3,0,0.6-0.1,0.8-0.3h0.7l0.3,5.9h-0.7
		c-0.6-1.7-1.1-3.1-1.7-4c-0.6-0.9-1.3-1.4-2.1-1.4c-0.4,0-0.7,0.2-1.1,0.5c-0.3,0.3-0.7,0.7-0.8,1.3c-0.2,0.6-0.3,1.1-0.3,1.9
		c0,1,0.2,1.7,0.6,2.2s0.9,0.9,1.7,1.1c0.7,0.2,1.4,0.5,2,0.7s1.1,0.4,1.4,0.7c0.7,0.6,1.1,1.3,1.5,2.2c0.3,0.9,0.5,2,0.5,3.2
		c0,1.1-0.2,2.2-0.5,3.2c-0.3,1-0.7,1.8-1.4,2.4c-0.6,0.6-1.2,0.9-2,0.9c-0.4,0-0.7-0.1-0.9-0.2c-0.2-0.1-0.6-0.3-1.1-0.7
		c-0.5-0.3-0.9-0.5-1.1-0.5c-0.4,0-0.8,0.3-1.1,0.9h-0.5v-7.1H515.4z M515.7,203.4c-0.1,0.7-0.2,1.3-0.2,1.8c0,0.5,0.1,1,0.2,1.5
		c0.1,0.5,0.2,1,0.4,1.5c0.2,0.5,0.4,0.8,0.7,1.1c0.3,0.4,0.7,0.7,1.1,0.8c0.4,0.2,1,0.3,1.7,0.6c0.7,0.2,1.3,0.4,1.5,0.7
		c0.6,0.3,1,0.8,1.2,1.5c0.3,0.7,0.4,1.5,0.4,2.4c0,0.7-0.1,1.4-0.3,2.2c0.5-0.8,0.7-1.8,0.7-2.8c0-1.1-0.2-2-0.5-2.6
		c-0.3-0.7-0.7-1.1-1.2-1.4c-0.5-0.3-1.1-0.6-2-0.8s-1.3-0.4-1.3-0.4c-0.8-0.3-1.4-1-1.8-1.8c-0.4-0.9-0.6-1.9-0.6-3
		c0-0.2,0-0.4,0-0.5S515.7,203.5,515.7,203.4z M515.7,215.1v3.8c0.2-0.3,0.3-0.6,0.4-0.7c0.2-0.1,0.3-0.2,0.7-0.2
		c-0.2-0.4-0.3-0.7-0.4-0.8c-0.1-0.2-0.2-0.4-0.3-0.8C516,216.2,515.8,215.7,515.7,215.1z M521.9,203.2l-0.2-2.7
		c-0.2,0.1-0.3,0.2-0.6,0.2c-0.2,0-0.4-0.1-0.7-0.2c0.2,0.2,0.4,0.5,0.6,0.8c0.2,0.3,0.3,0.7,0.5,1.1
		C521.8,202.9,521.9,203.1,521.9,203.2z"/>
	<path class="st1" d="M534.1,218.9v0.8h-4.1v-0.8c0.2,0,0.4-0.1,0.5-0.1c0.1,0,0.2-0.1,0.3-0.2c0.1-0.1,0.2-0.2,0.2-0.5
		c0.1-0.2,0.1-0.5,0.1-0.8v-6.7c0-0.9-0.1-1.5-0.3-2c-0.2-0.4-0.5-0.7-0.8-0.7c-0.6,0-1.2,0.6-2,1.8v7.7c0,0.6,0.1,0.9,0.2,1.1
		c0.2,0.2,0.5,0.3,0.9,0.3v0.8h-4.1v-0.8c0.4,0,0.7-0.1,0.8-0.2s0.2-0.5,0.2-1v-13.9c0-1.3-0.4-2.1-1.1-2.4v-0.6l2.8-1.5h0.3v9.6
		c0.4-0.6,0.8-1.1,1.3-1.4c0.5-0.3,0.9-0.5,1.4-0.5s0.9,0.2,1.2,0.4c0.3,0.2,0.7,0.7,0.8,1.3c0.2,0.6,0.3,1.3,0.3,2.2v5.9
		c0,0.6,0,1,0,1.2c0,0.2,0.1,0.4,0.2,0.7C533.6,218.9,533.7,219,534.1,218.9L534.1,218.9L534.1,218.9z M526.3,203.8v13.5
		c0,0.4,0,0.7-0.1,0.9c0,0.2-0.1,0.4-0.2,0.6h0.2c0.2,0,0.2-0.1,0.4-0.3c0.2-0.2,0.2-0.6,0.2-1.1v-13.7c0-0.7-0.1-1.1-0.2-1.5
		c-0.1-0.3-0.2-0.6-0.4-0.7c-0.2-0.2-0.4-0.2-0.6-0.2c-0.1,0-0.2,0-0.5,0.1c0.4,0.2,0.7,0.6,0.8,1
		C526.3,202.7,526.3,203.1,526.3,203.8z M531.4,210.1v7.4c0,0.3,0,0.7-0.1,0.8c-0.1,0.2-0.2,0.4-0.2,0.6c0.3,0,0.6-0.2,0.7-0.4
		c0.2-0.2,0.2-0.7,0.2-1.4v-6c0-0.7,0-1.3-0.1-1.7c-0.1-0.4-0.2-0.7-0.4-1s-0.6-0.4-1-0.5C531.1,208.2,531.4,209,531.4,210.1z"/>
	<path class="st1" d="M534.9,213.6c0-1.2,0.2-2.4,0.5-3.3c0.3-1,0.8-1.8,1.4-2.4s1.2-0.9,2-0.9c0.7,0,1.3,0.2,1.9,0.8s1,1.3,1.3,2.4
		c0.3,1,0.5,2.1,0.5,3.3c0,0.9-0.1,1.8-0.3,2.6c-0.2,0.8-0.5,1.5-0.8,2.1c-0.3,0.6-0.7,1.1-1.2,1.4s-0.9,0.5-1.5,0.5
		c-0.7,0-1.3-0.2-1.9-0.8c-0.6-0.6-1.1-1.3-1.4-2.3C535,216,534.9,214.9,534.9,213.6z M537.8,219.5c-0.7-0.7-1.2-1.6-1.6-2.7
		c-0.3-1.1-0.6-2.1-0.6-3.3c0-0.9,0.1-1.7,0.2-2.4c0.2-0.7,0.4-1.3,0.7-1.8c0.2-0.5,0.7-1.1,1.1-1.5c-0.6,0.3-1.1,0.8-1.4,1.5
		c-0.4,0.7-0.7,1.3-0.8,2.1c-0.2,0.8-0.2,1.6-0.2,2.5c0,0.7,0.1,1.3,0.2,1.9c0.1,0.7,0.3,1.2,0.5,1.7c0.2,0.5,0.5,1,0.8,1.3
		C537,219,537.3,219.3,537.8,219.5z M536.9,212.8c0,2,0.2,3.6,0.5,4.8c0.3,1.1,0.8,1.7,1.3,1.7c0.2,0,0.6-0.2,0.7-0.6
		c0.2-0.4,0.4-1,0.6-1.8c0.2-0.7,0.2-1.7,0.2-2.8c0-2-0.2-3.5-0.5-4.6c-0.3-1.1-0.7-1.6-1.3-1.6c-0.5,0-0.9,0.4-1.2,1.2
		C537.1,209.9,536.9,211.1,536.9,212.8z M539.8,218.8c0.4-0.4,0.7-1,1-1.9c0.2-0.8,0.3-1.9,0.3-3.1c0-3-0.6-5-1.6-5.9
		c0.4,0.7,0.7,1.5,0.8,2.4c0.2,1,0.2,2.3,0.2,3.9c0,1.1-0.1,1.9-0.2,2.6C540.3,217.6,540.1,218.2,539.8,218.8z"/>
	<path class="st1" d="M546,207v1.5c0.4-0.5,0.7-0.9,1.1-1.1c0.3-0.2,0.7-0.4,1.2-0.4c0.4,0,0.8,0.2,1.2,0.5c0.4,0.3,0.7,0.7,1.1,1.3
		c0.3,0.6,0.6,1.2,0.7,2c0.2,0.8,0.2,1.6,0.2,2.5c0,1.2-0.2,2.4-0.5,3.4c-0.3,1-0.8,1.8-1.4,2.4s-1.3,0.8-2,0.8
		c-0.6,0-1.1-0.2-1.7-0.7v5c0,0.4,0,0.7,0.1,0.9c0.1,0.2,0.2,0.4,0.2,0.5c0.2,0.1,0.3,0.2,0.6,0.2h0.4v0.8H543v-0.8
		c0.2,0,0.5-0.1,0.7-0.1c0.2-0.1,0.2-0.2,0.3-0.3c0.1-0.2,0.1-0.5,0.1-0.8v-13.4c0-0.7-0.1-1.3-0.2-1.6c-0.2-0.4-0.5-0.7-0.8-0.9
		V208l2.7-1L546,207L546,207z M545,223.8V211c0-0.9-0.1-1.5-0.3-2c-0.2-0.4-0.6-0.6-1.1-0.5c0.3,0.3,0.5,0.6,0.7,0.9
		c0.1,0.3,0.2,0.8,0.2,1.5v13.4c0,0.4,0,0.7-0.1,0.9c-0.1,0.2-0.2,0.4-0.2,0.6c0.4-0.1,0.7-0.2,0.7-0.6
		C544.9,225.1,545,224.6,545,223.8z M546,209.6v8.4c0.5,0.8,1.1,1.2,1.5,1.2c0.4,0,0.7-0.2,1.1-0.6c0.3-0.4,0.6-1,0.7-1.8
		c0.2-0.8,0.3-1.8,0.3-3c0-1.1-0.1-2.1-0.2-2.9c-0.2-0.8-0.4-1.4-0.7-1.8c-0.3-0.4-0.7-0.6-1.1-0.6
		C547.1,208.6,546.6,208.9,546,209.6z M547.4,208.1h0.2c0.7,0,1.3,0.5,1.7,1.5c0.4,1,0.7,2.4,0.7,4.2c0,1.4-0.1,2.5-0.3,3.3
		c-0.2,0.7-0.5,1.4-0.9,2c0.4-0.2,0.7-0.6,1-1.1s0.4-1.1,0.6-1.8c0.2-0.7,0.2-1.5,0.2-2.4c0-1.1-0.1-2-0.2-2.8
		c-0.2-0.8-0.3-1.4-0.6-1.9c-0.2-0.5-0.5-0.8-0.7-1c-0.2-0.2-0.5-0.3-0.7-0.3C547.9,207.8,547.7,207.9,547.4,208.1z"/>
</g>
<g>
	<path class="st0" d="M250.3,121.1c0,15.9-2.5,23.8-7.7,23.8c-5.3,0-8.5-8.1-9.4-24.4V87.9c0-3.3,0.9-6.8,2.7-10.5
		c1.8-3.7,3.8-5.6,6.1-5.6c1.1,0,2.6,1.2,4.4,3.7c1.9,2.4,3.6,3.7,5.3,3.7c-0.4,3.3-1.1,6.1-2.1,8.3c-1.1,2.3-2.3,3.4-3.7,3.6
		c-1.4,0.2-2.6-0.4-3.6-1.7s-2-2-2.8-2c-0.9,0-1.7,1-2.4,2.9c-0.7,2-1,4.2-1,6.8v14.2c0,3.7,0.5,7.2,1.4,10.7c1,3.5,2.8,5,5.7,4.5
		c2.8-0.5,4.2-2.7,4.2-6.5c0-1.3-0.2-2.4-0.7-3.1c-0.5-0.7-1.1-0.7-1.5,0.3c-0.5,1-1.5,1.5-2.9,1.5c-2.7,0-4.1-2.9-4.1-8.7
		c0-7.7,2-11.6,5.8-11.6c1,0,2,0.6,3.1,1.8c1.1,1.2,2,3.1,2.4,5.7C250.1,108.6,250.3,113.6,250.3,121.1z"/>
	<path class="st0" d="M301.6,115.6c0,7.7-1.9,14.4-5.7,20.4c-3.8,5.9-9,9-15.4,9c-7,0-12.3-2.2-15.8-6.7c-3.5-4.5-5.5-10.3-5.9-17.7
		c4.6,0,8.1-0.7,10.5-2s3.7-3.2,3.7-5.4c0-2.2-1.6-3.1-4.8-2.8c-3.2,0.3-6.3,1.3-9.4,2.9V85.2c0-2.4,1.4-5.4,4.1-8.5
		c2.8-3.3,4.6-4.9,5.4-4.9c0.8,0,2.4,1,4.5,2.9s4.6,3.2,7.3,3.7c-2,8.5-4,12.9-5.8,12.9s-3.3-0.6-4.7-1.7s-2.8-1.4-4.2-0.7
		c-1.5,0.7-2.8,3.1-3.9,7.3c5-2,8.9-1.9,11.8,0.3c2.9,2.2,4.4,6.7,4.4,13.4c0,4.8-1.9,9.4-5.7,13.6c0.3,1.6,1.6,3,3.8,4.2
		c2.2,1.1,5.1,1.7,8.7,1.7c3.9,0,7-1,9.4-2.9c2.4-2,3.5-5.2,3.5-9.8c0-1.8-1-3.4-2.9-5c-2-1.5-5.5-1-10.7,1.5V87.6
		c0-2.4,1.9-5.7,5.6-9.8c3.7-4.1,7.7-6.1,11.9-6.1c5.1,0,10,1.9,14.6,5.5c4.6,3.7,6.9,7.2,6.9,10.6v47.3c0,2-0.6,4.1-1.7,6.3
		c-1.1,2.3-2.4,3.4-4,3.4c-3.1,0-5.7-2.5-8-7.5c-2.3-5-3.4-9.3-3.4-12.9c0-2.3,2.4-4.6,7.1-6.8c4.7-2.3,7.1-6,7.1-11.4
		c0-3.6-2.7-7.7-8-12.4c-5.3-4.6-9.6-7-12.8-7c-2.7,0-5.2,0.7-7.5,2.2c-2.4,1.5-4,3.8-5,7.1c4.8-2.6,8.5-2,11.2,1.7
		C300.3,101.6,301.6,107.5,301.6,115.6z M318.9,125.1c0.6,0,0.9-0.7,0.9-2.1v-5.7c-1.1,1.8-1.9,3-2.4,3.6c-0.4,0.7-0.4,1.5-0.1,2.6
		C317.9,124.5,318.4,125.1,318.9,125.1z"/>
	<path class="st0" d="M335.5,95.1c3.7-1.3,7.2-0.8,10.1,1.4c2.9,2.2,4.4,6.7,4.4,13.4c0,4.8-1.9,9.4-5.7,13.6c0.3,1.6,1.6,3,3.8,4.2
		c2.2,1.1,5.1,1.7,8.7,1.7c3.9,0,7.2-1.6,9.9-4.8c2.8-3.2,5.1-7.7,7.2-13.3c0,10.6-1.9,18.8-5.7,24.7s-9,9-15.4,9
		c-7,0-12.3-2.2-15.8-6.7c-3.5-4.5-5.5-10.3-5.9-17.7c4.6,0,8.1-0.7,10.5-2.1s3.7-3.2,3.7-5.4c0-2.2-1.6-3.1-4.8-2.8
		c-3.2,0.3-6.3,1.3-9.4,2.9V90.5c1.7-4.7,4.4-9,8.1-12.9c3.7-3.9,8.5-5.9,14.7-5.9c5.5,0,10.3,2.5,14.2,7.6c3.9,5,5.9,10.5,5.9,16.4
		c0,4.6-1,8.8-2.8,12.5c-1.9,3.7-4.6,5.5-8.1,5.5c-5.8,0-8.6-3.3-8.6-10s1.8-10,5.5-10c2.4,0,4.2,1.1,5.1,3.3
		c-0.2,2.5,0.6,3.8,2.3,3.8c1.7,0.1,2.5-0.8,2.5-2.6c0-3.2-1.5-5.9-4.6-8.1c-3.1-2.2-6.8-3.3-11-3.3c-5.5,0-9.5,0.9-12.1,2.6
		C339.4,91.2,337.3,93.1,335.5,95.1z"/>
	<path class="st0" d="M416,128.8c1.6,0,3.9-2.4,6.8-7.1c2.9-4.7,6.3-7.1,10.1-7.1c2.4,0,4.6,1.5,6.5,4.3c2,2.8,2.9,6.3,2.9,10.3
		c0,4.1-0.8,7.7-2.5,10.8c-1.6,3.2-3.7,4.7-6,4.7c-2.4,0-4.2-0.8-5.4-2.4c-1.1-1.6-1.8-4.1-1.8-7.3s0.5-5.2,1.4-5.9
		c1-1.6,2.4-2.4,4.2-2.4c0,1.6,0.5,2.4,1.4,2.4c1,0,1.4-0.7,1.4-2.2c0-2.1-1.4-3.2-4.2-3.2c-2.4,0-4.8,3.5-7,10.5
		c-2.2,7-5.9,10.5-11,10.5c-3.4,0-6.5-2-9.3-5.8c-2.8-3.8-4.2-7.9-4.2-12.2v-6.4h2.8c3.6,0,6.4-0.7,8.4-2c2-1.4,3-3.2,3-5.4
		c0-2.2-1.6-3.1-4.8-2.8c-3.2,0.3-6.3,1.3-9.4,2.9V90.5c1.7-4.7,4.4-9,8.1-12.9c3.7-3.9,8.5-5.9,14.7-5.9c5.5,0,10.3,2.5,14.2,7.6
		c3.9,5,5.9,10.5,5.9,16.4c0,3.3-1,6.8-2.8,10.5c-1.9,3.7-4.6,5.5-8.1,5.5c-5.8,0-8.6-3.3-8.6-10c0-6.7,1.8-10,5.5-10
		c2.4,0,4.2,1.1,5.1,3.3c-0.2,2.5,0.6,3.8,2.3,3.8c1.7,0.1,2.5-0.8,2.5-2.6c0-2.2-1.5-4.3-4.6-6.3c-3.1-2.1-6.8-3.1-11-3.1
		c-5.5,0-9.5,0.9-12.1,2.6c-2.5,1.7-4.7,3.6-6.4,5.6c3.7-1.3,7.2-0.8,10.1,1.4c2.9,2.2,4.4,6.7,4.4,13.4c0,5.8-2.1,11.1-6.3,15.8
		C413.3,127.8,414.5,128.8,416,128.8z M463.7,164.4c0,9.8-2.8,14.7-8.5,14.7c-3.8,0-6.7-2.4-8.5-7.3c-1.9,4.9-4.7,7.3-8.5,7.3
		c-6.7,0-9.9-4.2-9.9-12.7c3,0,5-0.9,5.9-2.7c0.8-1.8,1.3-3.1,1.2-3.9c0-0.8-0.5-1.2-1.4-1.2c-1,0-1.4,1.1-1.4,3.4
		c-2.8,0-4.2-1.6-4.2-4.9c0-4.9,1.6-7.3,5-7.3s5,2.4,5,7.3c0,3.3-0.5,6.3-1.4,9.3c0,1.3,1,2,2.8,2c3,0,5.4-2.3,7.1-6.8
		c1.9,4.6,4.5,6.8,7.7,6.8c3.4,0,5.1-2.1,5.1-6.3v-46.7c-0.1-1.6-1.4-2.9-3.7-3.8c-2.4-0.9-5.4-0.3-9.1,1.8V87.6
		c0-2.4,1.8-5.7,5.4-9.8c3.6-4.1,7.3-6.1,11.3-6.1c5.1,0,10,1.9,14.6,5.5c4.6,3.7,6.9,7.2,6.9,10.6v47.3c0,2-0.6,4.1-1.7,6.3
		s-2.4,3.4-4,3.4c-3.1,0-5.7-2.5-8-7.5c-2.3-5-3.4-9.3-3.4-12.9c0-2.3,2.4-4.6,7.1-6.8c4.7-2.3,7.1-6,7.1-11.4c0-3.6-2.7-7.7-8-12.4
		c-5.3-4.6-9.4-6.9-12.2-6.9c-2.8,0-5.5,0.7-7.7,2.1c-2.3,1.5-3.7,3.8-4.6,7.1c3.3-1.8,6.3-1.9,8.9-0.2c2.6,1.7,4.4,4.2,5.3,7.5
		L463.7,164.4L463.7,164.4z M481.9,123v-5.7c-1.1,1.8-1.9,3-2.4,3.6c-0.4,0.7-0.4,1.5-0.1,2.6c0.4,1.1,0.9,1.6,1.5,1.6
		C481.6,125.1,481.9,124.4,481.9,123z"/>
	<path class="st0" d="M499.5,118.2c1.6,3.5,3.7,6.1,6.4,7.7c2.7,1.6,6.4,2.4,11.3,2.4c3.9,0,7.3-1.1,10.2-3.2c2.9-2.1,4.3-5,4.3-8.5
		c0-1.8-1.1-3.4-3.5-5c-2.4-1.5-6.1-1-11.3,1.5v-28c0-2.4,1.2-5.4,3.7-8.5c2.4-3.3,4-4.9,4.7-4.9c0.7,0,2.2,1.1,4.6,3.3
		c2.4,2.2,4.4,3.3,6.1,3.3c-1.5,8.9-3,13.3-4.6,13.3s-3.1-0.6-4.4-1.7c-1.4-1.1-2.7-1.4-4.2-0.7c-1.4,0.7-2.4,2.9-2.9,6.8
		c4.8-2.6,8.8-2,11.7,1.7c3,3.7,4.5,9.7,4.5,17.7c0,4.5-0.7,8.6-2,12.5c2,0.8,4.6,1.2,7.7,1.2c3.9,0,7-1,9.4-2.9
		c2.4-2,3.5-5.2,3.5-9.8c0-1.8-1.1-3.4-3.5-5c-2.4-1.5-6.1-1-11.3,1.5v-28c0-2.4,1.2-5.4,3.7-8.5c2.4-3.3,4-4.9,4.7-4.9
		c0.7,0,2.2,1.1,4.6,3.3c2.4,2.2,4.4,3.3,6.1,3.3c-1.5,8.9-3,13.3-4.6,13.3s-3.1-0.6-4.4-1.7c-1.4-1.1-2.7-1.4-4.2-0.7
		c-1.4,0.7-2.4,2.9-2.9,6.8c4.8-2.6,8.8-2,11.7,1.7c3,3.7,4.5,9.7,4.5,17.7c0,7.7-1.9,14.4-5.7,20.4c-3.8,5.9-8.7,9-14.8,9
		c-4.6,0-8.7-1.3-12.3-3.9c-3.1,2.6-7.1,3.9-12,3.9c-13.8,0-20.8-13.5-20.8-40.5c0-21.8,3.7-32.6,11.1-32.6c5.9,0,8.8,7.7,8.8,23
		c0,7.8-0.9,13.3-2.7,16.5c-1.8,3.2-3.8,4.6-6.1,4.2c-2.3-0.5-3.9-2.2-5-5.2c-1.1-3-1.1-6.1-0.1-9.4c1.1-3.3,2.4-5.5,4.2-6.6
		c0.7,2,1.7,3.1,3,3.6c1.5,0.6,2.4-0.4,2.7-2.8c0.2-2.4-1-4.1-3.7-5c-1.8-0.7-3.6,0.3-5.4,2.8c-1.8,2.5-2.9,5.5-3.3,8.8
		c-0.2,1.1-0.1,3.3,0.1,6.5C497,111.2,497.9,114.6,499.5,118.2z"/>
</g>
</svg>
